<?xml version="1.0" encoding="UTF-8"?>
<svg width="59px" height="60px" viewBox="0 0 59 60" version="1.1" xmlns="http://www.w3.org/2000/svg" xmlns:xlink="http://www.w3.org/1999/xlink">
    <!-- Generator: Sketch 55.2 (78181) - https://sketchapp.com -->
    <title>noun_Right Arrow_2157238</title>
    <desc>Created with Sketch.</desc>
    <g id="Ipad-Pro+-Macbook-air" stroke="none" stroke-width="1" fill="none" fill-rule="evenodd">
        <g id="Artboard" transform="translate(-266.000000, -14.000000)" fill="#FED136" fill-rule="nonzero">
            <g id="noun_Right-Arrow_2157238" transform="translate(266.000000, 14.000000)">
                <g id="Group">
                    <path d="M29.5,0.159896629 C45.6680308,0.159896629 58.9580966,13.4123663 58.9580966,29.9070876 C58.9580966,46.4017618 45.6680308,59.6332112 29.5,59.6332112 C13.3319692,59.6332112 0.0419034091,46.4017618 0.0419034091,29.9070876 C0.0419034091,13.4123663 13.3319692,0.159896629 29.5,0.159896629 Z M26.7553267,15.7919191 C26.2585425,15.8296974 25.8235314,16.1412822 25.625689,16.6010432 C25.4278466,17.0608041 25.4997855,17.5929537 25.8125,17.9829303 L34.9893466,29.9070876 L25.8125,41.8101775 C25.3589835,42.3979243 25.4634693,43.2437621 26.046206,43.7020833 C26.6289427,44.1604045 27.4705378,44.0586575 27.9286222,43.4745034 L37.7549716,30.7287169 C38.1360701,30.2401146 38.1360701,29.5529932 37.7549716,29.064391 L27.9286222,16.3186045 C27.6520686,15.9538092 27.2100576,15.7553931 26.7553267,15.7919191 Z" id="Shape"></path>
                </g>
            </g>
        </g>
    </g>
</svg>