<?xml version="1.0" encoding="UTF-8"?>
<svg width="59px" height="60px" viewBox="0 0 59 60" version="1.1" xmlns="http://www.w3.org/2000/svg" xmlns:xlink="http://www.w3.org/1999/xlink">
    <!-- Generator: Sketch 55.2 (78181) - https://sketchapp.com -->
    <title>noun_Right Arrow_2157238 Copy</title>
    <desc>Created with Sketch.</desc>
    <g id="Ipad-Pro+-Macbook-air" stroke="none" stroke-width="1" fill="none" fill-rule="evenodd">
        <g id="Artboard" transform="translate(-341.000000, -14.000000)" fill="#FED136" fill-rule="nonzero">
            <g id="noun_Right-Arrow_2157238-Copy" transform="translate(341.000000, 14.000000)">
                <g id="Group">
                    <path d="M29.5,0.159896629 C45.6680308,0.159896629 58.9580966,13.4123663 58.9580966,29.9070876 C58.9580966,46.4017618 45.6680308,59.6332112 29.5,59.6332112 C13.3319692,59.6332112 0.0419034091,46.4017618 0.0419034091,29.9070876 C0.0419034091,13.4123663 13.3319692,0.159896629 29.5,0.159896629 Z M34.3273722,16.1641884 C33.8726413,16.1276623 33.4306303,16.3260785 33.1540767,16.6908738 L23.3277273,29.4366603 C22.9466288,29.9252625 22.9466288,30.6123839 23.3277273,31.1009861 L33.1540767,43.8467726 C33.6121611,44.4309268 34.4537562,44.5326738 35.0364929,44.0743526 C35.6192295,43.6160314 35.7237154,42.7701936 35.2701989,42.1824468 L26.0933523,30.2793569 L35.2701989,18.3551996 C35.5829134,17.965223 35.6548523,17.4330734 35.4570099,16.9733124 C35.2591675,16.5135515 34.8241564,16.2019667 34.3273722,16.1641884 Z" id="Shape"></path>
                </g>
            </g>
        </g>
    </g>
</svg>