<svg id="Ipad-Pro_-Macbook-air" data-name="Ipad-Pro+-Macbook-air" xmlns="http://www.w3.org/2000/svg" width="28" height="28" viewBox="0 0 28 28">
  <g id="Artboard">
    <path id="Fill-9" d="M98.257,28.456a15.923,15.923,0,0,1-6.677,4.715c.278.569.545,1.149.793,1.732q.133.31.258.617a27.979,27.979,0,0,1,8.326.385,11.9,11.9,0,0,0-2.7-7.449M86.2,24.392a63.933,63.933,0,0,1,4.462,7,13.5,13.5,0,0,0,6.268-4.319A11.943,11.943,0,0,0,86.2,24.392m-8.9,9.176A44.586,44.586,0,0,0,88.35,32.111,76.312,76.312,0,0,0,83.916,25.2,12,12,0,0,0,77.3,33.568m2.821,10.445a18.972,18.972,0,0,1,9.72-7.891c.156-.051.313-.1.471-.143-.3-.679-.626-1.359-.969-2.029a44.139,44.139,0,0,1-12.289,1.7c0,.122-.006.243-.006.365a11.91,11.91,0,0,0,3.074,8m13.555,3.013a49.762,49.762,0,0,0-2.551-9.069l-.079.026c-6.744,2.35-9.166,7.028-9.381,7.468a11.942,11.942,0,0,0,12.011,1.574m7.136-9.11a17.55,17.55,0,0,0-7.449-.512,51.565,51.565,0,0,1,2.323,8.526,11.978,11.978,0,0,0,5.126-8.014M89,50a14,14,0,1,1,14-14A14.016,14.016,0,0,1,89,50" transform="translate(-75 -22)" fill="#f7f7f7" fill-rule="evenodd"/>
  </g>
</svg>
