<?xml version="1.0" encoding="UTF-8"?>
<svg width="32px" height="32px" viewBox="0 0 32 32" version="1.1" xmlns="http://www.w3.org/2000/svg" xmlns:xlink="http://www.w3.org/1999/xlink">
    <!-- Generator: Sketch 55.2 (78181) - https://sketchapp.com -->
    <title>Fill 9 Copy</title>
    <desc>Created with Sketch.</desc>
    <g id="Ipad-Pro+-Macbook-air" stroke="none" stroke-width="1" fill="none" fill-rule="evenodd">
        <g id="Artboard" transform="translate(-75.000000, -72.000000)" fill="#FED136">
            <path d="M101.579,79.378 C101.291,79.768 99.001,82.704 93.948,84.767 C94.266,85.417 94.571,86.08 94.854,86.746 C94.955,86.982 95.053,87.217 95.149,87.451 C99.696,86.88 104.215,87.796 104.665,87.891 C104.635,84.666 103.482,81.704 101.579,79.378 M87.798,74.734 C88.175,75.24 90.658,78.62 92.897,82.734 C97.757,80.913 99.814,78.148 100.06,77.798 C97.646,75.656 94.473,74.354 91,74.354 C89.898,74.354 88.825,74.486 87.798,74.734 M77.623,85.221 C78.234,85.229 83.864,85.254 90.257,83.556 C87.993,79.531 85.55,76.146 85.19,75.652 C81.367,77.456 78.509,80.98 77.623,85.221 M80.847,97.158 C81.157,96.628 84.907,90.418 91.956,88.14 C92.134,88.082 92.314,88.028 92.494,87.977 C92.151,87.201 91.778,86.424 91.386,85.658 C84.561,87.7 77.939,87.615 77.341,87.603 C77.337,87.742 77.334,87.881 77.334,88.02 C77.334,91.53 78.664,94.735 80.847,97.158 M96.339,100.601 C96.135,99.402 95.342,95.223 93.423,90.237 C93.393,90.247 93.363,90.257 93.333,90.267 C85.625,92.953 82.858,98.299 82.612,98.802 C84.929,100.609 87.841,101.687 91,101.687 C92.893,101.687 94.698,101.3 96.339,100.601 M104.494,90.19 C104.026,90.042 100.264,88.92 95.981,89.605 C97.769,94.517 98.496,98.518 98.636,99.349 C101.702,97.276 103.885,93.992 104.494,90.19 M91,104 C82.178,104 75,96.822 75,88 C75,79.177 82.178,72 91,72 C99.823,72 107,79.177 107,88 C107,96.822 99.823,104 91,104" id="Fill-9-Copy"></path>
        </g>
    </g>
</svg>