<?xml version="1.0" encoding="UTF-8"?>
<svg width="32px" height="31px" viewBox="0 0 32 31" version="1.1" xmlns="http://www.w3.org/2000/svg" xmlns:xlink="http://www.w3.org/1999/xlink">
    <!-- Generator: Sketch 55.2 (78181) - https://sketchapp.com -->
    <title>Fill 34</title>
    <desc>Created with Sketch.</desc>
    <g id="Ipad-Pro+-Macbook-air" stroke="none" stroke-width="1" fill="none" fill-rule="evenodd">
        <g id="Artboard" transform="translate(-132.000000, -20.000000)" fill="#F7F7F7">
            <path d="M147.999,20 C139.164,20 132,27.1148905 132,35.8935311 C132,42.9140597 136.584,48.8707816 142.943,50.9725697 C143.743,51.1185824 144.035,50.6279003 144.035,50.206748 C144.035,49.8293002 144.021,48.8300569 144.013,47.5040233 C139.562,48.4645286 138.623,45.3734299 138.623,45.3734299 C137.896,43.5378418 136.847,43.0491463 136.847,43.0491463 C135.394,42.0628157 136.957,42.0826813 136.957,42.0826813 C138.562,42.1949224 139.407,43.720606 139.407,43.720606 C140.835,46.1491845 143.152,45.4479262 144.064,45.0406799 C144.209,44.0136247 144.623,43.3133597 145.08,42.9160463 C141.527,42.5147597 137.792,41.1519746 137.792,35.0621527 C137.792,33.3268863 138.415,31.9084773 139.439,30.7969929 C139.274,30.394713 138.725,28.7796339 139.595,26.5914301 C139.595,26.5914301 140.939,26.1643181 143.995,28.2204152 C145.272,27.8677995 146.64,27.6919883 148.001,27.6850353 C149.36,27.6919883 150.729,27.8677995 152.007,28.2204152 C155.061,26.1643181 156.402,26.5914301 156.402,26.5914301 C157.275,28.7796339 156.726,30.394713 156.561,30.7969929 C157.587,31.9084773 158.206,33.3268863 158.206,35.0621527 C158.206,41.1668738 154.465,42.5107866 150.901,42.9041269 C151.475,43.394809 151.987,44.3642538 151.987,45.8472262 C151.987,47.9718599 151.967,49.6852741 151.967,50.206748 C151.967,50.6318734 152.255,51.1265286 153.067,50.9705831 C159.42,48.8648219 164,42.9120731 164,35.8935311 C164,27.1148905 156.836,20 147.999,20" id="Fill-34"></path>
        </g>
    </g>
</svg>