<svg id="Ipad-Pro_-Macbook-air" data-name="Ipad-Pro+-Macbook-air" xmlns="http://www.w3.org/2000/svg" width="32" height="32" viewBox="0 0 32 32">
  <g id="Artboard" transform="translate(-186 -69)">
    <path id="Fill-33-Copy" d="M213.269,96.267h-4.746V88.841c0-1.771-.03-4.049-2.466-4.049-2.469,0-2.846,1.93-2.846,3.922v7.553H198.47V81h4.55v2.088h.065a4.984,4.984,0,0,1,4.49-2.467c4.806,0,5.694,3.162,5.694,7.275ZM193.119,78.91a2.753,2.753,0,1,1,2.751-2.753,2.751,2.751,0,0,1-2.751,2.753Zm2.374,17.357h-4.751V81h4.751ZM216.667,69H187.334A1.333,1.333,0,0,0,186,70.333V99.666A1.334,1.334,0,0,0,187.334,101h29.333A1.333,1.333,0,0,0,218,99.666V70.333A1.333,1.333,0,0,0,216.667,69Z" fill="#fed136" fill-rule="evenodd"/>
  </g>
</svg>
