<?xml version="1.0" encoding="UTF-8"?>
<svg width="32px" height="32px" viewBox="0 0 32 32" version="1.1" xmlns="http://www.w3.org/2000/svg" xmlns:xlink="http://www.w3.org/1999/xlink">
    <!-- Generator: Sketch 55.2 (78181) - https://sketchapp.com -->
    <title>Fill 33 Copy</title>
    <desc>Created with Sketch.</desc>
    <g id="Ipad-Pro+-Macbook-air" stroke="none" stroke-width="1" fill="none" fill-rule="evenodd">
        <g id="Artboard" transform="translate(-186.000000, -69.000000)" fill="#FED136">
            <path d="M213.269,96.267 L208.523,96.267 L208.523,88.841 C208.523,87.07 208.493,84.792 206.057,84.792 C203.588,84.792 203.211,86.722 203.211,88.714 L203.211,96.267 L198.47,96.267 L198.47,80.996 L203.02,80.996 L203.02,83.084 L203.085,83.084 C203.718,81.883 205.266,80.617 207.575,80.617 C212.381,80.617 213.269,83.779 213.269,87.892 L213.269,96.267 Z M193.119,78.91 C191.594,78.91 190.365,77.677 190.365,76.157 C190.365,74.638 191.594,73.405 193.119,73.405 C194.637,73.405 195.87,74.638 195.87,76.157 C195.87,77.677 194.637,78.91 193.119,78.91 L193.119,78.91 Z M195.493,96.267 L190.742,96.267 L190.742,80.996 L195.493,80.996 L195.493,96.267 Z M216.667,69 L187.334,69 C186.597,69 186,69.597 186,70.333 L186,99.666 C186,100.403 186.597,101 187.334,101 L216.667,101 C217.403,101 218,100.403 218,99.666 L218,70.333 C218,69.597 217.403,69 216.667,69 L216.667,69 Z" id="Fill-33-Copy"></path>
        </g>
    </g>
</svg>