<?xml version="1.0" encoding="UTF-8"?>
<svg width="32px" height="32px" viewBox="0 0 32 32" version="1.1" xmlns="http://www.w3.org/2000/svg" xmlns:xlink="http://www.w3.org/1999/xlink">
    <!-- Generator: Sketch 55.2 (78181) - https://sketchapp.com -->
    <title>Fill 33</title>
    <desc>Created with Sketch.</desc>
    <g id="Ipad-Pro+-Macbook-air" stroke="none" stroke-width="1" fill="none" fill-rule="evenodd">
        <g id="Artboard" transform="translate(-186.000000, -20.000000)" fill="#F7F7F7">
            <path d="M213.269,47.267 L208.523,47.267 L208.523,39.841 C208.523,38.07 208.493,35.792 206.057,35.792 C203.588,35.792 203.211,37.722 203.211,39.714 L203.211,47.267 L198.47,47.267 L198.47,31.996 L203.02,31.996 L203.02,34.084 L203.085,34.084 C203.718,32.883 205.266,31.617 207.575,31.617 C212.381,31.617 213.269,34.779 213.269,38.892 L213.269,47.267 Z M193.119,29.91 C191.594,29.91 190.365,28.677 190.365,27.157 C190.365,25.638 191.594,24.405 193.119,24.405 C194.637,24.405 195.87,25.638 195.87,27.157 C195.87,28.677 194.637,29.91 193.119,29.91 L193.119,29.91 Z M195.493,47.267 L190.742,47.267 L190.742,31.996 L195.493,31.996 L195.493,47.267 Z M216.667,20 L187.334,20 C186.597,20 186,20.597 186,21.333 L186,50.666 C186,51.403 186.597,52 187.334,52 L216.667,52 C217.403,52 218,51.403 218,50.666 L218,21.333 C218,20.597 217.403,20 216.667,20 L216.667,20 Z" id="Fill-33"></path>
        </g>
    </g>
</svg>