<svg xmlns="http://www.w3.org/2000/svg" width="32" height="27.009" viewBox="0 0 32 27.009">
  <path id="medium_3_" data-name="medium (3)" d="M10.661,27.808a.944.944,0,0,1-1.464.927l-8.3-4.151a1.508,1.508,0,0,1-.633-.6A1.576,1.576,0,0,1,0,23.158V2.856c0-.757.455-1.1,1.483-.588l9.125,4.56c.132.132.035-.775.053,20.98ZM11.8,8.714,21.34,24.138,11.8,19.4ZM32,9.036V27.808a1.027,1.027,0,0,1-.251.721.871.871,0,0,1-.679.276,1.685,1.685,0,0,1-.839-.232l-7.875-3.919ZM31.947,6.9q0,.054-4.58,7.471T22,23.052L15.036,11.76l5.785-9.385a1.083,1.083,0,0,1,1.393-.392l9.661,4.809a.113.113,0,0,1,.071.107Z" transform="translate(0 -1.873)" fill="#fed136"/>
</svg>
