<svg id="Ipad-Pro_-Macbook-air" data-name="Ipad-Pro+-Macbook-air" xmlns="http://www.w3.org/2000/svg" width="32" height="26" viewBox="0 0 32 26">
  <g id="Artboard" transform="translate(-20 -74)">
    <path id="Fill-1-Copy" d="M52,77.077a13.142,13.142,0,0,1-3.771,1.034,6.583,6.583,0,0,0,2.887-3.631,13.168,13.168,0,0,1-4.169,1.593A6.571,6.571,0,0,0,35.76,82.059,18.64,18.64,0,0,1,22.228,75.2a6.57,6.57,0,0,0,2.031,8.763,6.533,6.533,0,0,1-2.973-.821c0,.028,0,.055,0,.083a6.567,6.567,0,0,0,5.267,6.436,6.6,6.6,0,0,1-2.965.113,6.571,6.571,0,0,0,6.133,4.558,13.174,13.174,0,0,1-8.154,2.809A13.5,13.5,0,0,1,20,97.052,18.589,18.589,0,0,0,30.064,100c12.076,0,18.679-10,18.679-18.675q0-.427-.019-.85A13.313,13.313,0,0,0,52,77.077" fill="#fed136" fill-rule="evenodd"/>
  </g>
</svg>
