<?xml version="1.0" encoding="UTF-8"?>
<svg width="32px" height="26px" viewBox="0 0 32 26" version="1.1" xmlns="http://www.w3.org/2000/svg" xmlns:xlink="http://www.w3.org/1999/xlink">
    <!-- Generator: Sketch 55.2 (78181) - https://sketchapp.com -->
    <title>Fill 1 Copy</title>
    <desc>Created with Sketch.</desc>
    <g id="Ipad-Pro+-Macbook-air" stroke="none" stroke-width="1" fill="none" fill-rule="evenodd">
        <g id="Artboard" transform="translate(-20.000000, -74.000000)" fill="#FED136">
            <path d="M52,77.0774082 C50.823,77.5993078 49.557,77.95224 48.229,78.1112094 C49.585,77.2983657 50.626,76.012613 51.116,74.4799077 C49.848,75.2317631 48.442,75.7776581 46.947,76.0726014 C45.749,74.7968468 44.043,74 42.155,74 C38.529,74 35.59,76.9384349 35.59,80.5637377 C35.59,81.0776389 35.648,81.5785426 35.76,82.0594501 C30.303,81.7855028 25.466,79.1720054 22.228,75.2007691 C21.663,76.1705826 21.339,77.2983657 21.339,78.5011344 C21.339,80.7776966 22.498,82.7873101 24.259,83.9640838 C23.183,83.9300904 22.171,83.6351471 21.286,83.1432417 C21.285,83.1712363 21.285,83.1982311 21.285,83.2262257 C21.285,86.4066141 23.548,89.059104 26.552,89.6619881 C26.001,89.8119592 25.421,89.8919439 24.822,89.8919439 C24.399,89.8919439 23.988,89.8509517 23.587,89.7749664 C24.422,92.3824649 26.847,94.2801 29.72,94.3330898 C27.473,96.0937512 24.642,97.1425495 21.566,97.1425495 C21.036,97.1425495 20.514,97.1115555 20,97.051567 C22.905,98.913209 26.356,100 30.064,100 C42.14,100 48.743,89.9979235 48.743,81.3245914 C48.743,81.0396462 48.737,80.7567006 48.724,80.4747549 C50.007,79.5499327 51.12,78.394155 52,77.0774082" id="Fill-1-Copy"></path>
        </g>
    </g>
</svg>