<?xml version="1.0" encoding="UTF-8"?>
<svg width="32px" height="26px" viewBox="0 0 32 26" version="1.1" xmlns="http://www.w3.org/2000/svg" xmlns:xlink="http://www.w3.org/1999/xlink">
    <!-- Generator: Sketch 55.2 (78181) - https://sketchapp.com -->
    <title>Fill 1</title>
    <desc>Created with Sketch.</desc>
    <g id="Ipad-Pro+-Macbook-air" stroke="none" stroke-width="1" fill="none" fill-rule="evenodd">
        <g id="Artboard" transform="translate(-21.000000, -24.000000)" fill="#F7F7F7">
            <path d="M53,27.0774082 C51.823,27.5993078 50.557,27.95224 49.229,28.1112094 C50.585,27.2983657 51.626,26.012613 52.116,24.4799077 C50.848,25.2317631 49.442,25.7776581 47.947,26.0726014 C46.749,24.7968468 45.043,24 43.155,24 C39.529,24 36.59,26.9384349 36.59,30.5637377 C36.59,31.0776389 36.648,31.5785426 36.76,32.0594501 C31.303,31.7855028 26.466,29.1720054 23.228,25.2007691 C22.663,26.1705826 22.339,27.2983657 22.339,28.5011344 C22.339,30.7776966 23.498,32.7873101 25.259,33.9640838 C24.183,33.9300904 23.171,33.6351471 22.286,33.1432417 C22.285,33.1712363 22.285,33.1982311 22.285,33.2262257 C22.285,36.4066141 24.548,39.059104 27.552,39.6619881 C27.001,39.8119592 26.421,39.8919439 25.822,39.8919439 C25.399,39.8919439 24.988,39.8509517 24.587,39.7749664 C25.422,42.3824649 27.847,44.2801 30.72,44.3330898 C28.473,46.0937512 25.642,47.1425495 22.566,47.1425495 C22.036,47.1425495 21.514,47.1115555 21,47.051567 C23.905,48.913209 27.356,50 31.064,50 C43.14,50 49.743,39.9979235 49.743,31.3245914 C49.743,31.0396462 49.737,30.7567006 49.724,30.4747549 C51.007,29.5499327 52.12,28.394155 53,27.0774082" id="Fill-1"></path>
        </g>
    </g>
</svg>