<svg xmlns="http://www.w3.org/2000/svg" xmlns:xlink="http://www.w3.org/1999/xlink" width="375" height="812" viewBox="0 0 375 812">
  <defs>
    <filter id="Mask" x="10.958" y="260.357" width="181.503" height="39.765" filterUnits="userSpaceOnUse">
      <feOffset dy="3" input="SourceAlpha"/>
      <feGaussianBlur stdDeviation="0.5" result="blur"/>
      <feFlood flood-opacity="0.039"/>
      <feComposite operator="in" in2="blur"/>
      <feComposite in="SourceGraphic"/>
    </filter>
    <filter id="Mask-2" x="8.5" y="105.5" width="358" height="135" filterUnits="userSpaceOnUse">
      <feOffset dy="1" input="SourceAlpha"/>
      <feGaussianBlur stdDeviation="0.5" result="blur-2"/>
      <feFlood flood-opacity="0.102"/>
      <feComposite operator="in" in2="blur-2"/>
      <feComposite in="SourceGraphic"/>
    </filter>
    <filter id="Background" x="0" y="741.5" width="375" height="70.5" filterUnits="userSpaceOnUse">
      <feOffset dy="-0.5" input="SourceAlpha"/>
      <feGaussianBlur result="blur-3"/>
      <feFlood flood-opacity="0.302"/>
      <feComposite operator="in" in2="blur-3"/>
      <feComposite in="SourceGraphic"/>
    </filter>
    <filter id="Mask-3" x="8.5" y="344.5" width="358" height="114" filterUnits="userSpaceOnUse">
      <feOffset dy="1" input="SourceAlpha"/>
      <feGaussianBlur stdDeviation="0.5" result="blur-4"/>
      <feFlood flood-opacity="0.102"/>
      <feComposite operator="in" in2="blur-4"/>
      <feComposite in="SourceGraphic"/>
    </filter>
    <clipPath id="clip-path">
      <rect id="Background-2" data-name="Background" width="355" height="40" rx="8.91" fill="rgba(118,118,128,0.12)"/>
    </clipPath>
    <clipPath id="clip-path-2">
      <rect id="Mask-4" data-name="Mask" width="177.5" height="34.286" fill="none"/>
    </clipPath>
    <filter id="Mask-5" x="10.958" y="260.357" width="181.503" height="39.765" filterUnits="userSpaceOnUse">
      <feOffset dy="3" input="SourceAlpha"/>
      <feGaussianBlur stdDeviation="0.5" result="blur-5"/>
      <feFlood flood-opacity="0.039"/>
      <feComposite operator="in" in2="blur-5"/>
      <feComposite in="SourceGraphic"/>
    </filter>
    <clipPath id="clip-path-3">
      <g transform="matrix(1, 0, 0, 1, 0, 0)" filter="url(#Mask)">
        <rect id="Mask-6" data-name="Mask" width="177.503" height="34.265" rx="6.93" fill="#fff" stroke="rgba(0,0,0,0.04)" stroke-miterlimit="10" stroke-width="0.5"/>
      </g>
    </clipPath>
    <clipPath id="clip-_2">
      <rect width="375" height="812"/>
    </clipPath>
  </defs>
  <g id="_2" data-name="2" clip-path="url(#clip-_2)">
    <rect width="375" height="812" fill="#fff"/>
    <rect id="Rectangle" width="375" height="854" transform="translate(0 92)" fill="#f1f1f1"/>
    <g id="Plans">
      <rect id="Bar" width="375" height="91" fill="#fff"/>
      <g id="Center" transform="translate(121 46)">
        <text id="Make_a_Payment" data-name="Make a Payment" transform="translate(0.916)" font-size="17" font-family="SFProText-Semibold, SF Pro Text" font-weight="600" letter-spacing="-0.024em"><tspan x="0.119" y="16">Make a Payment</tspan></text>
      </g>
    </g>
    <path id="Fill_13" data-name="Fill 13" d="M2,14A1.89,1.89,0,0,1,0,12.25,1.889,1.889,0,0,1,2,10.5a1.889,1.889,0,0,1,2,1.75A1.89,1.89,0,0,1,2,14ZM2,8.75A1.889,1.889,0,0,1,0,7,1.89,1.89,0,0,1,2,5.25,1.89,1.89,0,0,1,4,7,1.889,1.889,0,0,1,2,8.75ZM2,3.5A1.89,1.89,0,0,1,0,1.75,1.889,1.889,0,0,1,2,0,1.889,1.889,0,0,1,4,1.75,1.89,1.89,0,0,1,2,3.5Z" transform="translate(351 50)"/>
    <path id="Path" d="M3.621,10.5l7.939-7.939A1.5,1.5,0,1,0,9.439.439l-9,9a1.5,1.5,0,0,0,0,2.121l9,9a1.5,1.5,0,1,0,2.121-2.121Z" transform="translate(9 47)"/>
    <g id="Group_11" data-name="Group 11" transform="translate(10 106)">
      <g id="Group">
        <g transform="matrix(1, 0, 0, 1, -10, -106)" filter="url(#Mask-2)">
          <rect id="Mask-7" data-name="Mask" width="355" height="132" rx="8" transform="translate(10 106)" fill="#fff"/>
        </g>
        <g id="Group_2" data-name="Group 2" transform="translate(1 15)">
          <g id="Group_6" data-name="Group 6" transform="translate(0 5)">
            <g id="Group_8" data-name="Group 8">
              <text id="Total_Due_Today" data-name="Total Due Today" font-size="13" font-family="SFProText-Regular, SF Pro Text"><tspan x="127.882" y="12">Total Due Today</tspan></text>
              <text id="Past_dues" data-name="Past dues" transform="translate(47 89)" font-size="12" font-family="SFProText-Light, SF Pro Text" font-weight="300"><tspan x="-27.416" y="0">Past dues</tspan></text>
              <text id="_158.93" data-name="$158.93" transform="translate(310.5 90)" font-size="14" font-family="SFProText-Light, SF Pro Text" font-weight="300"><tspan x="-26.564" y="0">$158.93</tspan></text>
              <text id="_158.93-2" data-name="$158.93" transform="translate(96 17)" font-size="16" font-family="SFProText-Regular, SF Pro Text"><tspan x="7.117" y="38">$</tspan><tspan y="38" font-size="40" font-family="SFProText-Semibold, SF Pro Text" font-weight="600">158.93</tspan></text>
            </g>
          </g>
        </g>
      </g>
    </g>
    <path id="Line_2" data-name="Line 2" d="M.2,1H375" transform="translate(0 91)" fill="none" stroke="#d2d3d2" stroke-linecap="square" stroke-miterlimit="10" stroke-width="1"/>
    <g id="Group_16" data-name="Group 16" transform="translate(0 742)">
      <g id="Bars_Toolbar_iPhone_8_Light_-_2_Labels" data-name="Bars / Toolbar / iPhone 8 / Light - 2 Labels">
        <g transform="matrix(1, 0, 0, 1, 0, -742)" filter="url(#Background)">
          <rect id="Background-3" data-name="Background" width="375" height="70" transform="translate(0 742)" fill="rgba(248,248,248,0.82)"/>
        </g>
      </g>
    </g>
    <g id="Group_25" data-name="Group 25" transform="translate(312 45)">
      <g id="Group_473" data-name="Group 473">
        <path id="Stroke_783" data-name="Stroke 783" d="M8,12H7L4.707,14.293A1,1,0,0,1,3,13.586V12H1a1,1,0,0,1-1-1V1A1,1,0,0,1,1,0H18a1,1,0,0,1,1,1V6.5" transform="translate(0.5 0.482)" fill="none" stroke="#000" stroke-linecap="round" stroke-linejoin="round" stroke-miterlimit="10" stroke-width="1.2"/>
        <path id="Stroke_784" data-name="Stroke 784" d="M5.5,8l2.836,2.521A1,1,0,0,0,10,9.773V8h1a1,1,0,0,0,1-1V1a1,1,0,0,0-1-1H1A1,1,0,0,0,0,1V7A1,1,0,0,0,1,8Z" transform="translate(11.5 9.482)" fill="none" stroke="#000" stroke-linecap="round" stroke-linejoin="round" stroke-miterlimit="10" stroke-width="1.2"/>
      </g>
    </g>
    <g id="Group_13" data-name="Group 13" transform="translate(10 345)">
      <g id="Group_10_Copy" data-name="Group 10 Copy">
        <g id="Group-2" data-name="Group">
          <g id="Group_12" data-name="Group 12">
            <g transform="matrix(1, 0, 0, 1, -10, -345)" filter="url(#Mask-3)">
              <rect id="Mask-8" data-name="Mask" width="355" height="111" rx="8" transform="translate(10 345)" fill="#fff"/>
            </g>
          </g>
        </g>
      </g>
      <rect id="Separator" width="340" height="0.5" transform="translate(16 54)" fill="#cececf"/>
      <text id="Input" transform="translate(241 20)" font-size="16" font-family="SFProText-Regular, SF Pro Text"><tspan x="18.242" y="15">$158.93</tspan></text>
      <text id="Label" transform="translate(16 33)" font-size="14" font-family="SFProText-Regular, SF Pro Text"><tspan x="0" y="0">Amount</tspan></text>
      <g id="Group_14" data-name="Group 14" transform="translate(16 69)">
        <text id="Input-2" data-name="Input" transform="translate(207 2)" font-size="16" font-family="SFProText-Regular, SF Pro Text"><tspan x="6.344" y="15">Visa- *4488</tspan></text>
        <text id="Label-2" data-name="Label" transform="translate(0 13)" font-size="14" font-family="SFProText-Regular, SF Pro Text"><tspan x="0" y="0">Payment method</tspan></text>
        <path id="EditableIndicator" d="M0,1.269,1.125,0,6,5.5,1.125,11,0,9.731,3.75,5.5Z" transform="translate(318 7)" fill="#0668e8"/>
      </g>
      <path id="EditableIndicator-2" data-name="EditableIndicator" d="M0,1.269,1.125,0,6,5.5,1.125,11,0,9.731,3.75,5.5Z" transform="translate(334 25)" fill="#0668e8"/>
    </g>
    <g id="Group_9" data-name="Group 9" transform="translate(10 258)">
      <g id="Group_10" data-name="Group 10">
        <g id="Segmented_Control" data-name="Segmented Control">
          <rect id="Background-4" data-name="Background" width="355" height="40" rx="8.91" fill="rgba(118,118,128,0.12)"/>
          <g id="Segmented_Control-2" data-name="Segmented Control" clip-path="url(#clip-path)">
            <g id="Separator-2" data-name="Separator" transform="translate(178.725 8)">
              <rect id="Separator-3" data-name="Separator" width="1" height="24" rx="0.5" fill="#8e8e93" opacity="0.3"/>
            </g>
            <g id="Option_2" data-name="Option 2" transform="translate(177.5 2.857)">
              <rect id="Mask-9" data-name="Mask" width="177.5" height="34.286" fill="none"/>
            </g>
            <g id="Option_1" data-name="Option 1" transform="translate(2.958 2.857)">
              <g transform="matrix(1, 0, 0, 1, -12.96, -260.86)" filter="url(#Mask-5)">
                <g id="Mask-10" data-name="Mask" transform="translate(12.96 260.86)" fill="#fff" stroke="rgba(0,0,0,0.04)" stroke-miterlimit="10" stroke-width="0.5">
                  <rect width="177.503" height="34.265" rx="6.93" stroke="none"/>
                  <rect x="-0.25" y="-0.25" width="178.003" height="34.765" rx="7.18" fill="none"/>
                </g>
              </g>
            </g>
          </g>
        </g>
      </g>
    </g>
    <text id="Label_1" data-name="Label 1" transform="translate(61.959 271.418)" font-size="13" font-family="SFProText-Semibold, SF Pro Text" font-weight="600" letter-spacing="-0.006em"><tspan x="12.797" y="12">Pay Now</tspan></text>
    <text id="Label-3" data-name="Label" transform="translate(12 318)" font-size="16" font-family="SFProText-Bold, SF Pro Text" font-weight="700"><tspan x="0" y="15">One-Time Payment</tspan></text>
    <text id="Total:_158.93" data-name="Total: $158.93" transform="translate(24 784)" font-size="18" font-family="SFProDisplay-Semibold, SF Pro Display" font-weight="600"><tspan x="0" y="0" xml:space="preserve">Total:   $158.93</tspan></text>
    <g id="Group_7_Copy" data-name="Group 7 Copy" transform="translate(235 757)">
      <g id="Group_3" data-name="Group 3">
        <g id="cta_primary_flex">
          <g id="Group_4" data-name="Group 4">
            <g id="Rectangle_126" data-name="Rectangle 126" fill="#ffce0a" stroke="rgba(255,206,10,0.5)" stroke-miterlimit="10" stroke-width="2">
              <rect width="116" height="40" rx="20" stroke="none"/>
              <rect x="1" y="1" width="114" height="38" rx="19" fill="none"/>
            </g>
            <g id="Group_17" data-name="Group 17" transform="translate(19 13)">
              <g id="Group_18" data-name="Group 18">
                <g id="Group_19" data-name="Group 19">
                  <g id="Group_20" data-name="Group 20">
                    <text id="REVIEW" transform="translate(27.5 14)" font-size="14" font-family="SFProDisplay-Semibold, SF Pro Display" font-weight="600" letter-spacing="0.043em"><tspan x="-26.82" y="0">REVIEW</tspan></text>
                    <path id="arrow_down" d="M4.248,11.206a.7.7,0,0,1-.318-.182L.2,7.3a.7.7,0,1,1,.986-.985L3.954,9.075V.7A.7.7,0,1,1,5.348.7V9.075L8.114,6.31A.7.7,0,0,1,9.1,7.3L5.371,11.024a.7.7,0,0,1-.318.182.7.7,0,0,1-.8,0Z" transform="translate(64.998 11.317) rotate(-90)"/>
                  </g>
                </g>
              </g>
            </g>
          </g>
        </g>
      </g>
    </g>
    <text id="_Label_1" data-name="↳ Label 1" transform="translate(280 283)" font-size="13" font-family="SFProText-Regular, SF Pro Text" letter-spacing="-0.006em"><tspan x="-53.339" y="0">Need More Time?</tspan></text>
    <path id="Shape" d="M11.5,0A1.819,1.819,0,0,0,9.916.876L.248,17.163A1.909,1.909,0,0,0,1.83,20H21.168a1.91,1.91,0,0,0,1.584-2.837L13.084.876A1.819,1.819,0,0,0,11.5,0Zm0,2.526,9.052,15.248H2.448ZM10.4,6.645V12.21h2.2V6.645Zm0,7.79v2.226h2.2V14.435Z" transform="translate(81 161)" fill="#e02020"/>
  </g>
</svg>
