<svg xmlns="http://www.w3.org/2000/svg" xmlns:xlink="http://www.w3.org/1999/xlink" width="942" height="851" viewBox="0 0 942 851"><defs><filter id="a" x="511.982" y="266.565" width="154.426" height="34.538" filterUnits="userSpaceOnUse"><feOffset dy="3" input="SourceAlpha"/><feGaussianBlur stdDeviation="0.5" result="b"/><feFlood flood-opacity="0.039"/><feComposite operator="in" in2="b"/><feComposite in="SourceGraphic"/></filter><clipPath id="c"><rect width="318" height="688" rx="28" fill="none" stroke="#000" stroke-width="2"/></clipPath><filter id="d" x="510.5" y="135.5" width="304" height="115" filterUnits="userSpaceOnUse"><feOffset dy="1" input="SourceAlpha"/><feGaussianBlur stdDeviation="0.5" result="e"/><feFlood flood-opacity="0.102"/><feComposite operator="in" in2="e"/><feComposite in="SourceGraphic"/></filter><filter id="f" x="503" y="674.5" width="318" height="59.5" filterUnits="userSpaceOnUse"><feOffset dy="-0.5" input="SourceAlpha"/><feGaussianBlur result="g"/><feFlood flood-opacity="0.302"/><feComposite operator="in" in2="g"/><feComposite in="SourceGraphic"/></filter><filter id="h" x="510.5" y="337.5" width="304" height="97" filterUnits="userSpaceOnUse"><feOffset dy="1" input="SourceAlpha"/><feGaussianBlur stdDeviation="0.5" result="i"/><feFlood flood-opacity="0.102"/><feComposite operator="in" in2="i"/><feComposite in="SourceGraphic"/></filter><clipPath id="j"><rect width="301" height="35" rx="8.91" transform="translate(0.397 -0.274)" fill="rgba(118,118,128,0.12)"/></clipPath><clipPath id="k"><rect width="150.424" height="29.056" fill="none"/></clipPath><filter id="l" x="511.982" y="266.565" width="154.426" height="34.538" filterUnits="userSpaceOnUse"><feOffset dy="3" input="SourceAlpha"/><feGaussianBlur stdDeviation="0.5" result="m"/><feFlood flood-opacity="0.039"/><feComposite operator="in" in2="m"/><feComposite in="SourceGraphic"/></filter><clipPath id="n"><g transform="matrix(1, 0, 0, 1, 0, 0)" filter="url(#a)"><rect width="150.426" height="29.038" rx="6.93" fill="#fff" stroke="rgba(0,0,0,0.04)" stroke-miterlimit="10" stroke-width="0.5"/></g></clipPath><clipPath id="o"><rect width="318" height="688" opacity="0.4"/></clipPath><clipPath id="p"><rect width="318" height="689" rx="28" fill="none" stroke="#000" stroke-width="2"/></clipPath><filter id="q" x="150.5" y="169.5" width="304" height="115" filterUnits="userSpaceOnUse"><feOffset dy="1" input="SourceAlpha"/><feGaussianBlur stdDeviation="0.5" result="r"/><feFlood flood-opacity="0.102"/><feComposite operator="in" in2="r"/><feComposite in="SourceGraphic"/></filter><filter id="s" x="143" y="675.5" width="319" height="59.5" filterUnits="userSpaceOnUse"><feOffset dy="-0.5" input="SourceAlpha"/><feGaussianBlur result="t"/><feFlood flood-opacity="0.302"/><feComposite operator="in" in2="t"/><feComposite in="SourceGraphic"/></filter><filter id="u" x="149.984" y="294.953" width="304.21" height="57.303" filterUnits="userSpaceOnUse"><feOffset dy="1" input="SourceAlpha"/><feGaussianBlur stdDeviation="0.5" result="v"/><feFlood flood-opacity="0.102"/><feComposite operator="in" in2="v"/><feComposite in="SourceGraphic"/></filter></defs><g transform="translate(-12807 5156)"><rect width="942" height="851" transform="translate(12807 -5156)" fill="#f8f8f8"/><g transform="translate(12615.315 -5110.261)"><g transform="translate(694.685 0.261)"><g transform="translate(0)"><g clip-path="url(#c)"><rect width="318" height="688" fill="#f1f1f1"/><rect width="318" height="77" fill="#fff"/><g transform="translate(103.742 38.983)"><text transform="translate(50 12)" font-size="13" font-family="SFProText-Semibold, SF Pro Text" font-weight="600" letter-spacing="-0.024em"><tspan x="-49.997" y="0">Make a Payment</tspan></text></g><path d="M1.5,12A1.5,1.5,0,1,1,3,10.5,1.5,1.5,0,0,1,1.5,12Zm0-4.5A1.5,1.5,0,1,1,3,6,1.5,1.5,0,0,1,1.5,7.5ZM1.5,3A1.5,1.5,0,1,1,3,1.5,1.5,1.5,0,0,1,1.5,3Z" transform="translate(298 42)"/><path d="M3.069,8.9,9.8,2.17A1.271,1.271,0,0,0,8,.372L.372,8a1.271,1.271,0,0,0,0,1.8L8,17.424a1.271,1.271,0,1,0,1.8-1.8Z" transform="translate(13.559 39.83)"/><g transform="translate(8.602 90.321)"><g transform="translate(0 0)"><g transform="matrix(1, 0, 0, 1, -511.6, -136.32)" filter="url(#d)"><rect width="301" height="112" rx="8" transform="translate(512 136)" fill="#fff"/></g><g transform="translate(17.204 16.128)"><g transform="translate(0 0)"><g transform="translate(0 0)"><text transform="translate(130.193 9.552)" font-size="10" font-family="SFProText-Regular, SF Pro Text"><tspan x="-37.783" y="0">Total Due Today</tspan></text><text transform="translate(21.193 75.552)" font-size="9" font-family="SFProText-Light, SF Pro Text" font-weight="300"><tspan x="-20.562" y="0">Past dues</tspan></text><text transform="translate(242.77 75.585)" font-size="10" font-family="SFProText-Light, SF Pro Text" font-weight="300"><tspan x="-18.975" y="0">$158.93</tspan></text><text transform="translate(131.193 46.552)" font-size="13" font-family="SFProText-Regular, SF Pro Text"><tspan x="-60.063" y="0">$</tspan><tspan y="0" font-size="33" font-family="SFProText-Semibold, SF Pro Text" font-weight="600">158.93</tspan></text></g></g></g></g></g><path d="M.2,1H317.827" transform="translate(-0.03 76.966)" fill="none" stroke="#d2d3d2" stroke-linecap="square" stroke-miterlimit="10" stroke-width="1"/><g transform="translate(0 629.017)"><g transform="translate(0 0)"><g transform="matrix(1, 0, 0, 1, -503, -675.02)" filter="url(#f)"><rect width="318" height="59" transform="translate(503 675)" fill="rgba(248,248,248,0.82)"/></g></g></g><g transform="translate(264.83 38.544)"><g transform="translate(0 0)"><path d="M6.78,10.169H5.932L3.989,12.113a.847.847,0,0,1-1.447-.6V10.169H.847A.847.847,0,0,1,0,9.322V.847A.847.847,0,0,1,.847,0H15.254A.847.847,0,0,1,16.1.847V5.508" fill="none" stroke="#000" stroke-linecap="round" stroke-linejoin="round" stroke-miterlimit="10" stroke-width="1.2"/><path d="M4.661,6.78l2.4,2.136a.847.847,0,0,0,1.41-.633V6.78h.847a.847.847,0,0,0,.847-.847V.847A.847.847,0,0,0,9.322,0H.847A.847.847,0,0,0,0,.847V5.932a.847.847,0,0,0,.847.847Z" transform="translate(9.322 7.627)" fill="none" stroke="#000" stroke-linecap="round" stroke-linejoin="round" stroke-miterlimit="10" stroke-width="1.2"/></g></g><g transform="translate(56.988 641.92)"><g transform="translate(0 0)"><g transform="translate(0.012 0.081)" fill="#ffce0a" stroke="#ffce0a" stroke-miterlimit="10" stroke-width="1.778"><rect width="203" height="33" rx="16.5" stroke="none"/><rect x="0.889" y="0.889" width="201.222" height="31.222" rx="15.611" fill="none"/></g><text transform="translate(30.724 8.927)" font-size="14" font-family="SFProDisplay-Regular, SF Pro Display"><tspan x="44.482" y="13">Continue</tspan></text></g></g><g transform="translate(8.602 292.466)"><g transform="translate(0 0)"><g transform="matrix(1, 0, 0, 1, -511.6, -338.47)" filter="url(#h)"><rect width="301" height="94" rx="8" transform="translate(512 338)" fill="#fff"/></g></g><rect width="288" height="1" transform="translate(13.397 45.534)" fill="none"/><text transform="translate(265.397 28.534)" font-size="12" font-family="SFProText-Regular, SF Pro Text"><tspan x="-46.318" y="0">$158.93</tspan></text><text transform="translate(13.397 27.534)" font-size="11" font-family="SFProText-Regular, SF Pro Text"><tspan x="0" y="0">Amount</tspan></text><g transform="translate(12.903 58.063)"><text transform="translate(176.495 2.472)" font-size="16" font-family="SFProText-Regular, SF Pro Text"><tspan x="43.531" y="15">Visa- </tspan></text><text transform="translate(0.495 10.472)" font-size="11" font-family="SFProText-Regular, SF Pro Text"><tspan x="0" y="0">Payment method</tspan></text><path d="M0,1.076.953,0,5.085,4.661.953,9.322,0,8.246,3.178,4.661Z" transform="translate(270.02 6.25)" fill="#0668e8"/></g><path d="M0,1.076.953,0,5.085,4.661.953,9.322,0,8.246,3.178,4.661Z" transform="translate(282.923 21.093)" fill="#0668e8"/></g><g transform="translate(8.602 218.274)"><g transform="translate(0 0)"><rect width="301" height="35" rx="8.91" transform="translate(0.397 -0.274)" fill="rgba(118,118,128,0.12)"/><g clip-path="url(#j)"><g transform="translate(151.334 7.149)"><rect width="0.847" height="20.339" rx="0.424" fill="#8e8e93" opacity="0.3"/></g><g transform="translate(150.297 2.791)"><rect width="150.424" height="29.056" fill="none"/></g><g transform="translate(2.38 2.791)"><g transform="matrix(1, 0, 0, 1, -513.98, -267.07)" filter="url(#l)"><g transform="translate(513.98 267.07)" fill="#fff" stroke="rgba(0,0,0,0.04)" stroke-miterlimit="10" stroke-width="0.5"><rect width="150.426" height="29.038" rx="6.93" stroke="none"/><rect x="-0.25" y="-0.25" width="150.926" height="29.538" rx="7.18" fill="none"/></g></g></g></g></g></g><text transform="translate(233 240)" font-size="10" font-family="SFProText-Regular, SF Pro Text" letter-spacing="-0.006em"><tspan x="-41.03" y="0">Need More Time?</tspan></text><text transform="translate(82.472 239.015)" font-size="9" font-family="SFProText-Semibold, SF Pro Text" font-weight="600" letter-spacing="-0.006em"><tspan x="-18.789" y="0">Pay Now</tspan></text><rect width="318" height="688" opacity="0.4"/><g transform="translate(0 345.152)"><path d="M12,0H306a12,12,0,0,1,12,12V343a0,0,0,0,1,0,0H0a0,0,0,0,1,0,0V12A12,12,0,0,1,12,0Z" transform="translate(0 -0.152)" fill="#f0f0f0"/><g transform="translate(0 73.117)"><g transform="translate(40.86 20.43)"><text transform="translate(105.14 9.301)" font-size="9" font-family="SFProDisplay-Light, SF Pro Display" font-weight="300" letter-spacing="0.008em"><tspan x="-104.7" y="0">We understand the difference a few days can make, and </tspan><tspan x="-99.839" y="11">encourage you to make a payment arrangement. This </tspan><tspan x="-97.026" y="22">allows eligible customers additional time to pay their </tspan><tspan x="-34.692" y="33" xml:space="preserve">past due balance.  </tspan></text></g><text transform="translate(69 109.731)" font-size="11" font-family="SFProDisplay-Semibold, SF Pro Display" font-weight="600" letter-spacing="0.008em"><tspan x="0" y="0">Won’t prevent late fees</tspan></text><text transform="translate(69 183.731)" font-size="11" font-family="SFProDisplay-Semibold, SF Pro Display" font-weight="600" letter-spacing="0.008em"><tspan x="0" y="0">Hold on AutoPay</tspan></text><g transform="translate(22.58 101.073)"><g transform="translate(46.235 17.204)"><text transform="translate(0.185 9.454)" font-size="9" font-family="SFProDisplay-Light, SF Pro Display" font-weight="300" letter-spacing="0.008em"><tspan x="0" y="0">A payment arrangement won’t prevent late fees. </tspan><tspan x="0" y="11">Balances paid after the due date may be subject to </tspan><tspan x="0" y="22" xml:space="preserve">late fees, which could appear on your next bill.  </tspan></text></g><g transform="translate(0.42 -0.342)"><g transform="translate(2.025 2.025)"><circle cx="10.263" cy="10.263" r="10.263" fill="none" stroke="#818181" stroke-linecap="round" stroke-linejoin="round" stroke-miterlimit="10" stroke-width="1.7"/><path d="M5.87.005H1.754A1.625,1.625,0,0,0,.005,1.754c0,1.917,5.865,3.383,5.865,5.3A1.717,1.717,0,0,1,4.121,8.8H.005" transform="translate(7.326 5.86)" fill="none" stroke="#818181" stroke-linecap="round" stroke-linejoin="round" stroke-miterlimit="10" stroke-width="1.7"/><path d="M.636,2.2V0" transform="translate(9.627 3.665)" fill="none" stroke="#818181" stroke-linecap="round" stroke-linejoin="round" stroke-miterlimit="10" stroke-width="1.7"/><path d="M.636,2.2V0" transform="translate(9.627 14.662)" fill="none" stroke="#818181" stroke-linecap="round" stroke-linejoin="round" stroke-miterlimit="10" stroke-width="1.7"/></g></g></g><g transform="translate(22.58 174.19)"><g transform="translate(0 0)"><text transform="translate(46.42 26.541)" font-size="9" font-family="SFProDisplay-Light, SF Pro Display" font-weight="300" letter-spacing="0.008em"><tspan x="0" y="0">If you’re enrolled in AutoPay, it will be put on hold </tspan><tspan x="0" y="11">and resume after your payment arrangement </tspan><tspan x="0" y="22">closes. </tspan></text><g transform="translate(0.42 -0.458)"><g transform="translate(1.536 2.228)"><path d="M.6,0V6.937" transform="translate(7.722 6.937)" fill="none" stroke="#818181" stroke-linecap="round" stroke-linejoin="round" stroke-miterlimit="10" stroke-width="1.763"/><path d="M.6,0V6.937" transform="translate(12.397 6.937)" fill="none" stroke="#818181" stroke-linecap="round" stroke-linejoin="round" stroke-miterlimit="10" stroke-width="1.763"/><circle cx="10.405" cy="10.405" r="10.405" fill="none" stroke="#818181" stroke-linecap="round" stroke-linejoin="round" stroke-miterlimit="10" stroke-width="1.763"/></g></g></g></g><rect width="317.796" height="0.424" transform="translate(0 85.121)" fill="#cececf"/><text transform="translate(152 9.731)" fill="#818181" font-size="10" font-family="SFProDisplay-Bold, SF Pro Display" font-weight="700" letter-spacing="0.077em"><tspan x="-95.038" y="0">PAYMENT ARRANGEMENT BENEFITS</tspan></text></g><text transform="translate(270 27.848)" fill="#0668e8" font-size="13" font-family="SFProDisplay-Medium, SF Pro Display" font-weight="500"><tspan x="0" y="0">Done</tspan></text><rect width="317.796" height="0.424" transform="translate(0 43.83)" fill="#cececf"/></g><text transform="translate(10 282)" font-size="13" font-family="SFProText-Bold, SF Pro Text" font-weight="700"><tspan x="0" y="0">One-Time Payment</tspan></text><path d="M9.746,0A1.542,1.542,0,0,0,8.4.742L.21,14.545a1.618,1.618,0,0,0,1.341,2.4H17.939a1.619,1.619,0,0,0,1.342-2.4L11.088.742A1.542,1.542,0,0,0,9.746,0Zm0,2.141,7.671,12.922H2.075ZM8.815,5.631v4.716h1.863V5.631Zm0,6.6V14.12h1.863V12.233Z" transform="translate(68.644 136.441)" fill="#e02020"/></g><g fill="none" stroke="#000" stroke-width="2"><rect width="318" height="688" rx="28" stroke="none"/><rect x="1" y="1" width="316" height="686" rx="27" fill="none"/></g></g><g transform="translate(8.602 718.533)"><text transform="translate(150 15)" font-size="15" font-family="Lato-Medium, Lato" font-weight="500" letter-spacing="0.008em"><tspan x="-142.493" y="0">Few iterations later: Tighter messaging for </tspan><tspan x="-149.625" y="21">Payment Arrangement using icons and a list. </tspan></text></g></g></g><g transform="translate(64 -26)"><g transform="translate(12886 -5084)"><g clip-path="url(#p)"><rect width="319" height="689" fill="#f1f1f1"/><rect width="319" height="78" fill="#fff"/><g transform="translate(103.867 39.03)"><text transform="translate(50 12)" font-size="13" font-family="SFProText-Semibold, SF Pro Text" font-weight="600" letter-spacing="-0.024em"><tspan x="-49.997" y="0">Make a Payment</tspan></text></g><path d="M1.5,12A1.5,1.5,0,1,1,3,10.5,1.5,1.5,0,0,1,1.5,12Zm0-4.5A1.5,1.5,0,1,1,3,6,1.5,1.5,0,0,1,1.5,7.5ZM1.5,3A1.5,1.5,0,1,1,3,1.5,1.5,1.5,0,0,1,1.5,3Z" transform="translate(298 42)"/><path d="M3.073,8.909,9.809,2.173a1.273,1.273,0,0,0-1.8-1.8L.373,8.009a1.273,1.273,0,0,0,0,1.8l7.636,7.636a1.273,1.273,0,1,0,1.8-1.8Z" transform="translate(13.576 39.878)"/><g transform="translate(8.611 123.787)"><g transform="matrix(1, 0, 0, 1, -151.61, -169.79)" filter="url(#q)"><rect width="301" height="112" rx="8" transform="translate(152 170)" fill="#fff"/></g><g transform="translate(17.223 17.223)"><g transform="translate(0 0)"><text transform="translate(130.166 9.989)" font-size="10" font-family="SFProText-Regular, SF Pro Text"><tspan x="-37.783" y="0">Total Due Today</tspan></text><text transform="translate(21.166 74.989)" font-size="9" font-family="SFProText-Light, SF Pro Text" font-weight="300"><tspan x="-20.562" y="0">Past dues</tspan></text><text transform="translate(243.043 75.17)" font-size="10" font-family="SFProText-Light, SF Pro Text" font-weight="300"><tspan x="-18.975" y="0">$158.93</tspan></text><text transform="translate(131.166 44.989)" font-size="13" font-family="SFProText-Regular, SF Pro Text"><tspan x="-60.063" y="0">$</tspan><tspan y="0" font-size="33" font-family="SFProText-Semibold, SF Pro Text" font-weight="600">158.93</tspan></text></g></g></g><path d="M.2,1H318.209" transform="translate(-0.03 77.06)" fill="none" stroke="#d2d3d2" stroke-linecap="square" stroke-miterlimit="10" stroke-width="1"/><g transform="translate(0 629.702)"><g transform="translate(0 0)"><g transform="matrix(1, 0, 0, 1, -143, -675.7)" filter="url(#s)"><rect width="319" height="59" transform="translate(143 676)" fill="rgba(248,248,248,0.82)"/></g></g><g transform="translate(11.841 12.596)"><g transform="translate(0)"><g transform="translate(150.643)" fill="#ffce0a" stroke="#ffce0a" stroke-miterlimit="10" stroke-width="1.778"><rect width="142.544" height="33.939" rx="16.97" stroke="none"/><rect x="0.889" y="0.889" width="140.767" height="32.161" rx="16.081" fill="none"/></g><text transform="translate(218.612 20.333)" font-size="12" font-family="SFProDisplay-Regular, SF Pro Display"><tspan x="-22.89" y="0">Continue</tspan></text><g transform="translate(0.159 0.702)" fill="none" stroke="#ffce0a" stroke-miterlimit="10" stroke-width="1.778"><rect width="142" height="33" rx="16.5" stroke="none"/><rect x="0.889" y="0.889" width="140.222" height="31.222" rx="15.611" fill="none"/></g><text transform="translate(71.159 20.702)" font-size="13" font-family="SFProDisplay-Regular, SF Pro Display"><tspan x="-19.059" y="0">Cancel</tspan></text></g></g></g><g transform="translate(265.149 38.591)"><g transform="translate(0 0)"><path d="M6.788,10.182H5.939L3.994,12.127a.848.848,0,0,1-1.448-.6V10.182H.848A.848.848,0,0,1,0,9.333V.848A.848.848,0,0,1,.848,0H15.273a.848.848,0,0,1,.848.848V5.515" fill="none" stroke="#000" stroke-linecap="round" stroke-linejoin="round" stroke-miterlimit="10" stroke-width="1.2"/><path d="M4.667,6.788,7.073,8.926a.848.848,0,0,0,1.412-.634v-1.5h.848a.848.848,0,0,0,.848-.848V.848A.848.848,0,0,0,9.333,0H.848A.848.848,0,0,0,0,.848V5.939a.848.848,0,0,0,.848.848Z" transform="translate(9.333 7.636)" fill="none" stroke="#000" stroke-linecap="round" stroke-linejoin="round" stroke-miterlimit="10" stroke-width="1.2"/></g></g><rect width="319" height="33" transform="translate(0 79)"/><text transform="translate(158 99)" fill="#fff" font-size="14" font-family="SFProText-Regular, SF Pro Text"><tspan x="-47.964" y="0">408-555-1212</tspan></text><g transform="translate(8.485 249.453)"><g transform="matrix(1, 0, 0, 1, -151.48, -295.45)" filter="url(#u)"><path d="M0,6.788A6.788,6.788,0,0,1,6.788,0H294.422a6.788,6.788,0,0,1,6.788,6.788V47.515a6.788,6.788,0,0,1-6.788,6.788H6.788A6.788,6.788,0,0,1,0,47.515Z" transform="translate(151.48 295.45)" fill="#fff"/></g></g><g transform="translate(17.394 262.646)"><g transform="translate(0 0.383)"><g transform="translate(5.091 5.091)"><g fill="none" stroke="#cecfcf" stroke-miterlimit="10" stroke-width="1"><circle cx="8.485" cy="8.485" r="8.485" stroke="none"/><circle cx="8.485" cy="8.485" r="7.985" fill="none"/></g><circle cx="8.485" cy="8.485" r="8.485" fill="none"/></g><text transform="translate(32.242 16.939)" font-size="12" font-family="SFProText-Light, SF Pro Text" font-weight="300"><tspan x="0" y="0">Pay Now</tspan></text></g><g transform="translate(141.915 0)"><g transform="translate(-0.309 0.354)"><g transform="translate(5.382 5.382)"><g transform="translate(-0.383 -0.383)" fill="none" stroke="#0a0" stroke-miterlimit="10" stroke-width="1"><circle cx="8.5" cy="8.5" r="8.5" stroke="none"/><circle cx="8.5" cy="8.5" r="8" fill="none"/></g><circle cx="8.5" cy="8.5" r="8.5" transform="translate(-0.383 -0.383)" fill="none"/></g><circle cx="5.5" cy="5.5" r="5.5" transform="translate(8 8)" fill="#0a0"/></g><text transform="translate(32.691 18.354)" font-size="13" font-family="SFProText-Light, SF Pro Text" font-weight="300"><tspan x="0" y="0">Pay Later</tspan></text></g></g><text transform="translate(22 372)" fill="rgba(0,0,0,0.5)" font-size="9" font-family="SFProText-Regular, SF Pro Text"><tspan x="0" y="0">Every man who has lotted here over the centuries, has </tspan><tspan x="0" y="11">looked up to the light and imagined climbing to freedom. </tspan><tspan x="0" y="22">So easy, so simple! And like shipwrecked men turning to </tspan><tspan x="0" y="33">seawater foregoing uncontrollable thirst, many have died </tspan><tspan x="0" y="44">trying. And then here there can be no true despair </tspan><tspan x="0" y="55">without hope. So as I terrorize Gotham, I will feed its </tspan><tspan x="0" y="66">people hope to poison their souls. I will let them believe </tspan><tspan x="0" y="77">that they can survive so that you can watch them </tspan><tspan x="0" y="88">climbing over each other to stay in the sun. You can </tspan><tspan x="0" y="99">watch me torture an entire city. And then when you’ve </tspan><tspan x="0" y="110">truly understood the depth of your failure, we will fulfill </tspan><tspan x="0" y="121">Ra’s Al Ghul’s destiny. We will destroy Gotham. And then, </tspan><tspan x="0" y="132">when that is done, and Gotham is… ashes Then you have </tspan><tspan x="0" y="143">my permission to die.</tspan></text><text transform="translate(22 350)" font-size="13" font-family="SFProText-Semibold, SF Pro Text" font-weight="600"><tspan x="0" y="0">Payment Arrangements</tspan></text></g><g fill="none" stroke="#000" stroke-width="2"><rect width="318" height="689" rx="28" stroke="none"/><rect x="1" y="1" width="316" height="687" rx="27" fill="none"/></g></g><text transform="translate(13053.585 -4349.683)" font-size="15" font-family="Lato-Medium, Lato" font-weight="500" letter-spacing="0.008em"><tspan x="-102.791" y="0">1st iteration to show Payment </tspan><tspan x="-79.361" y="21">arrangement messaging</tspan></text></g></g></svg>