<svg xmlns="http://www.w3.org/2000/svg" xmlns:xlink="http://www.w3.org/1999/xlink" width="942" height="851" viewBox="0 0 942 851"><defs><clipPath id="a"><rect width="296" height="640" rx="28" transform="translate(0.084 0.261)" fill="none" stroke="#000" stroke-width="2"/></clipPath><clipPath id="b"><rect width="296" height="640" transform="translate(0.084 0.261)"/></clipPath><filter id="c" x="509.5" y="147.5" width="283" height="107" filterUnits="userSpaceOnUse"><feOffset dy="1" input="SourceAlpha"/><feGaussianBlur stdDeviation="0.5" result="d"/><feFlood flood-opacity="0.102"/><feComposite operator="in" in2="d"/><feComposite in="SourceGraphic"/></filter><filter id="e" x="503" y="649.5" width="296" height="55.5" filterUnits="userSpaceOnUse"><feOffset dy="-0.5" input="SourceAlpha"/><feGaussianBlur result="f"/><feFlood flood-opacity="0.302"/><feComposite operator="in" in2="f"/><feComposite in="SourceGraphic"/></filter><filter id="g" x="509.5" y="336.5" width="283" height="90" filterUnits="userSpaceOnUse"><feOffset dy="1" input="SourceAlpha"/><feGaussianBlur stdDeviation="0.5" result="h"/><feFlood flood-opacity="0.102"/><feComposite operator="in" in2="h"/><feComposite in="SourceGraphic"/></filter><clipPath id="i"><rect width="280" height="32" rx="8.91" transform="translate(0.201 -0.131)" fill="rgba(118,118,128,0.12)"/></clipPath><filter id="j" x="511.131" y="269.884" width="143.933" height="32.513" filterUnits="userSpaceOnUse"><feOffset dy="3" input="SourceAlpha"/><feGaussianBlur stdDeviation="0.5" result="k"/><feFlood flood-opacity="0.039"/><feComposite operator="in" in2="k"/><feComposite in="SourceGraphic"/></filter><clipPath id="l"><rect width="296" height="640" rx="28" fill="none" stroke="#000" stroke-width="2"/></clipPath><clipPath id="m"><rect width="296" height="640"/></clipPath><filter id="n" x="149.5" y="179.5" width="283" height="107" filterUnits="userSpaceOnUse"><feOffset dy="1" input="SourceAlpha"/><feGaussianBlur stdDeviation="0.5" result="o"/><feFlood flood-opacity="0.102"/><feComposite operator="in" in2="o"/><feComposite in="SourceGraphic"/></filter><filter id="p" x="149.386" y="296.351" width="282.955" height="132.332" filterUnits="userSpaceOnUse"><feOffset dy="1" input="SourceAlpha"/><feGaussianBlur stdDeviation="0.5" result="q"/><feFlood flood-opacity="0.102"/><feComposite operator="in" in2="q"/><feComposite in="SourceGraphic"/></filter><filter id="r" x="143" y="649.5" width="296" height="55.5" filterUnits="userSpaceOnUse"><feOffset dy="-0.5" input="SourceAlpha"/><feGaussianBlur result="s"/><feFlood flood-opacity="0.302"/><feComposite operator="in" in2="s"/><feComposite in="SourceGraphic"/></filter></defs><g transform="translate(-12807 5156)"><rect width="942" height="851" transform="translate(12807 -5156)" fill="#f8f8f8"/><g transform="translate(12662.315 -5091.261)"><g transform="translate(647.6)"><g transform="translate(4.839 668.514)"><text transform="translate(143.245 12.747)" font-size="14" font-family="Lato-Medium, Lato" font-weight="500" letter-spacing="0.008em"><tspan x="-63.917" y="0">Few iterations later: </tspan><tspan x="-129.864" y="20">Need more time lets users know that it is </tspan><tspan x="-128.16" y="40">not highly encouraged but do if you must</tspan></text></g><g clip-path="url(#a)"><rect width="296" height="640" transform="translate(0.084 0.261)" fill="#fff"/><g clip-path="url(#b)"><rect width="296" height="640" transform="translate(0.084 0.261)" fill="#fff"/><rect width="296" height="674" transform="translate(0.084 72.261)" fill="#f1f1f1"/><rect width="296" height="71" transform="translate(0.084 0.261)" fill="#fff"/><g transform="translate(96.205 36.264)"><text transform="translate(0 12)" font-size="13" font-family="SFProText-Semibold, SF Pro Text" font-weight="600" letter-spacing="-0.024em"><tspan x="0" y="0">Make a Payment</tspan></text></g><path d="M1.577,11.036A1.49,1.49,0,0,1,0,9.656a1.489,1.489,0,0,1,1.577-1.38,1.489,1.489,0,0,1,1.577,1.38,1.49,1.49,0,0,1-1.577,1.38Zm0-4.139A1.489,1.489,0,0,1,0,5.518a1.49,1.49,0,0,1,1.577-1.38,1.49,1.49,0,0,1,1.577,1.38A1.489,1.489,0,0,1,1.577,6.9Zm0-4.139A1.49,1.49,0,0,1,0,1.379,1.489,1.489,0,0,1,1.577,0a1.489,1.489,0,0,1,1.577,1.38,1.49,1.49,0,0,1-1.577,1.38Z" transform="translate(276.708 39.418)"/><path d="M2.855,8.278,9.113,2.019A1.183,1.183,0,1,0,7.441.346l-7.1,7.1a1.183,1.183,0,0,0,0,1.672l7.1,7.1a1.182,1.182,0,1,0,1.672-1.672Z" transform="translate(7.095 37.052)"/><g transform="translate(7.883 83.564)"><g transform="matrix(1, 0, 0, 1, -510.8, -148.3)" filter="url(#c)"><rect width="280" height="104" rx="8" transform="translate(511 148)" fill="#fff"/></g><g transform="translate(16.227 15.767)"><g transform="translate(0 0)"><text transform="translate(85.973 9)" font-size="10" font-family="SFProText-Regular, SF Pro Text"><tspan x="0" y="0">Total Due Today</tspan></text><text transform="translate(0 70.491)" font-size="12" font-family="SFProText-Light, SF Pro Text" font-weight="300"><tspan x="0" y="0">Past dues</tspan></text><text transform="translate(208.4 70.702)" font-size="12" font-family="SFProText-Light, SF Pro Text" font-weight="300"><tspan x="0" y="0">$158.93</tspan></text><text transform="translate(65.853 43.402)" font-size="12" font-family="SFProText-Regular, SF Pro Text"><tspan x="0" y="0">$</tspan><tspan y="0" font-size="31" font-family="SFProText-Semibold, SF Pro Text" font-weight="600">158.93</tspan></text></g></g></g><path d="M.2,1H295.67" transform="translate(-0.042 71.527)" fill="none" stroke="#d2d3d2" stroke-linecap="square" stroke-miterlimit="10" stroke-width="1"/><g transform="translate(0 584.949)"><g transform="matrix(1, 0, 0, 1, -502.92, -649.69)" filter="url(#e)"><rect width="296" height="55" transform="translate(503 650)" fill="rgba(248,248,248,0.82)"/></g></g><g transform="translate(246.357 35.855)"><g transform="translate(0 0)"><path d="M6.307,9.46H5.518L3.711,11.268a.788.788,0,0,1-1.346-.557V9.46H.788A.788.788,0,0,1,0,8.672V.788A.788.788,0,0,1,.788,0h13.4a.788.788,0,0,1,.788.788V5.124" fill="none" stroke="#000" stroke-linecap="round" stroke-linejoin="round" stroke-miterlimit="10" stroke-width="1.2"/><path d="M4.336,6.307,6.572,8.294A.788.788,0,0,0,7.883,7.7v-1.4h.788a.788.788,0,0,0,.788-.788V.788A.788.788,0,0,0,8.672,0H.788A.788.788,0,0,0,0,.788v4.73a.788.788,0,0,0,.788.788Z" transform="translate(8.672 7.095)" fill="none" stroke="#000" stroke-linecap="round" stroke-linejoin="round" stroke-miterlimit="10" stroke-width="1.2"/></g></g><g transform="translate(7.883 271.978)"><g transform="matrix(1, 0, 0, 1, -510.8, -336.72)" filter="url(#g)"><rect width="280" height="87" rx="8" transform="translate(511 337)" fill="#fff"/></g><rect width="268.036" height="0.394" transform="translate(12.613 42.57)" fill="#cececf"/><text transform="translate(204.371 26.767)" font-size="12" font-family="SFProText-Regular, SF Pro Text"><tspan x="0" y="0">$158.93</tspan></text><text transform="translate(12.201 25.283)" font-size="11" font-family="SFProText-Regular, SF Pro Text"><tspan x="0" y="0">Amount</tspan></text><g transform="translate(12.613 54.396)"><text transform="translate(168.188 12.577)" font-size="12" font-family="SFProText-Regular, SF Pro Text"><tspan x="0" y="0">Visa- *4488</tspan></text><text transform="translate(-0.412 9.887)" font-size="11" font-family="SFProText-Regular, SF Pro Text"><tspan x="0" y="0">Payment method</tspan></text><path d="M0,1,.887,0,4.73,4.336.887,8.672,0,7.671,2.956,4.336Z" transform="translate(250.693 5.518)" fill="#0668e8"/></g><path d="M0,1,.887,0,4.73,4.336.887,8.672,0,7.671,2.956,4.336Z" transform="translate(263.306 19.709)" fill="#0668e8"/></g><g transform="translate(7.883 203.392)"><rect width="280" height="32" rx="8.91" transform="translate(0.201 -0.131)" fill="rgba(118,118,128,0.12)"/><g clip-path="url(#i)"><g transform="translate(140.896 6.307)"><rect width="0.788" height="18.92" rx="0.394" fill="#8e8e93" opacity="0.3"/></g><g transform="translate(139.931 2.252)"><rect width="139.931" height="27.029" fill="none"/></g><g transform="translate(2.332 2.252)"><g transform="matrix(1, 0, 0, 1, -513.13, -270.38)" filter="url(#j)"><g transform="translate(513.13 270.38)" fill="#fff" stroke="rgba(0,0,0,0.04)" stroke-miterlimit="10" stroke-width="0.5"><rect width="139.933" height="27.013" rx="6.93" stroke="none"/><rect x="-0.25" y="-0.25" width="140.433" height="27.513" rx="7.18" fill="none"/></g></g></g></g></g><text transform="translate(58.933 222.97)" font-size="10" font-family="SFProText-Semibold, SF Pro Text" font-weight="600" letter-spacing="-0.006em"><tspan x="0" y="0">Pay Now</tspan></text><text transform="translate(9.084 261.261)" font-size="12" font-family="SFProText-Bold, SF Pro Text" font-weight="700"><tspan x="0" y="0">One-Time Payment</tspan></text><text transform="translate(19.084 617.261)" font-size="14" font-family="SFProDisplay-Semibold, SF Pro Display" font-weight="600"><tspan x="0" y="0" xml:space="preserve">Total:   $158.93</tspan></text><g transform="translate(185.26 596.774)"><g transform="translate(-0.176 0.486)" fill="#ffce0a" stroke="rgba(255,206,10,0.5)" stroke-miterlimit="10" stroke-width="2"><rect width="92" height="31" rx="15.5" stroke="none"/><rect x="1" y="1" width="90" height="29" rx="14.5" fill="none"/></g><g transform="translate(15.515 11.037)"><g transform="translate(0 0)"><text transform="translate(0 10)" font-size="10" font-family="SFProDisplay-Semibold, SF Pro Display" font-weight="600" letter-spacing="0.043em"><tspan x="0" y="0">REVIEW</tspan></text><path d="M3.391,8.885a.552.552,0,0,1-.251-.143L.2,5.806a.552.552,0,1,1,.777-.777L3.16,7.205V.6a.552.552,0,1,1,1.1,0v6.6l2.181-2.18a.552.552,0,0,1,.777.78L4.277,8.742a.552.552,0,0,1-.251.143.552.552,0,0,1-.631,0Z" transform="translate(50.654 8.176) rotate(-90)"/></g></g></g><text transform="translate(178.686 222.641)" font-size="10" font-family="SFProText-Regular, SF Pro Text" letter-spacing="-0.006em"><tspan x="0" y="0">Need More Time?</tspan></text><path d="M9.067,0A1.434,1.434,0,0,0,7.819.691L.2,13.53a1.5,1.5,0,0,0,1.247,2.237H16.689a1.506,1.506,0,0,0,1.249-2.237L10.316.691A1.434,1.434,0,0,0,9.067,0Zm0,1.991L16.2,14.012H1.931ZM8.2,5.238V9.626H9.934V5.238Zm0,6.141v1.755H9.934V11.38Z" transform="translate(63.854 126.923)" fill="#e02020"/></g><g transform="translate(147.084 196.261)" fill="none" stroke="#fa6400" stroke-width="1"><rect width="142" height="43" stroke="none"/><rect x="0.5" y="0.5" width="141" height="42" fill="none"/></g></g><g transform="translate(0.084 0.261)" fill="none" stroke="#000" stroke-width="2"><rect width="296" height="640" rx="28" stroke="none"/><rect x="1" y="1" width="294" height="638" rx="27" fill="none"/></g></g></g><g transform="translate(871 4935)"><g transform="translate(12079 -10026)" clip-path="url(#l)"><g clip-path="url(#m)"><rect width="296" height="640" fill="#fff"/><rect width="296" height="673" transform="translate(0 73)" fill="#f1f1f1"/><rect width="296" height="72" fill="#fff"/><g transform="translate(96.238 36.276)"><text transform="translate(0 12)" font-size="13" font-family="SFProText-Semibold, SF Pro Text" font-weight="600" letter-spacing="-0.024em"><tspan x="0" y="0">Make a Payment</tspan></text></g><path d="M1.577,11.04A1.49,1.49,0,0,1,0,9.66,1.49,1.49,0,0,1,1.577,8.28,1.49,1.49,0,0,1,3.154,9.66a1.49,1.49,0,0,1-1.577,1.38Zm0-4.14A1.49,1.49,0,0,1,0,5.519a1.49,1.49,0,0,1,1.577-1.38,1.49,1.49,0,0,1,1.577,1.38A1.49,1.49,0,0,1,1.577,6.9Zm0-4.14A1.49,1.49,0,0,1,0,1.379,1.49,1.49,0,0,1,1.577,0a1.49,1.49,0,0,1,1.577,1.38,1.49,1.49,0,0,1-1.577,1.38Z" transform="translate(276.801 39.431)"/><path d="M2.856,8.28,9.116,2.02A1.183,1.183,0,0,0,7.444.346l-7.1,7.1a1.183,1.183,0,0,0,0,1.673l7.1,7.1a1.183,1.183,0,1,0,1.673-1.673Z" transform="translate(12.618 37.065)"/><g transform="translate(7.886 115.137)"><g transform="matrix(1, 0, 0, 1, -150.89, -180.14)" filter="url(#n)"><rect width="280" height="104" rx="8" transform="translate(151 180)" fill="#fff"/></g><g transform="translate(16.233 15.772)"><g transform="translate(0 0)"><text transform="translate(85.405 9)" font-size="9" font-family="SFProText-Regular, SF Pro Text"><tspan x="0" y="0">Total Due Today</tspan></text><text transform="translate(0 70.511)" font-size="9" font-family="SFProText-Light, SF Pro Text" font-weight="300"><tspan x="0" y="0">Past dues</tspan></text><text transform="translate(208.47 70.723)" font-size="10" font-family="SFProText-Light, SF Pro Text" font-weight="300"><tspan x="0" y="0">$158.93</tspan></text><text transform="translate(65.875 43.406)" font-size="12" font-family="SFProText-Regular, SF Pro Text"><tspan x="0" y="0">$</tspan><tspan y="0" font-size="31" font-family="SFProText-Semibold, SF Pro Text" font-weight="600">158.93</tspan></text></g></g><g transform="translate(0 116.714)"><g transform="matrix(1, 0, 0, 1, -150.89, -296.85)" filter="url(#p)"><path d="M0,6.309A6.309,6.309,0,0,1,6.309,0H273.647a6.309,6.309,0,0,1,6.309,6.309V123.023a6.309,6.309,0,0,1-6.309,6.309H6.309A6.309,6.309,0,0,1,0,123.023Z" transform="translate(150.89 296.85)" fill="#fff"/></g><g transform="translate(12.618 50.471)"><rect width="268" height="1" transform="translate(0.496 38.679)" fill="none"/><rect width="266.943" height="0.789" fill="none"/><g transform="translate(0 11.829)"><text transform="translate(191.822 11)" font-size="12" font-family="SFProText-Regular, SF Pro Text"><tspan x="0" y="0">$158.93</tspan></text><text transform="translate(0.496 9.85)" font-size="11" font-family="SFProText-Regular, SF Pro Text"><tspan x="0" y="0">Amount</tspan></text><path d="M0,1,.887,0,4.732,4.337.887,8.675,0,7.674,2.957,4.337Z" transform="translate(250.777 3.943)" fill="#0668e8"/></g></g><g transform="translate(12.618 100.942)"><text transform="translate(179.864 11)" font-size="12" font-family="SFProText-Regular, SF Pro Text"><tspan x="0" y="0">Visa-*448</tspan></text><text transform="translate(0.496 10.208)" font-size="11" font-family="SFProText-Regular, SF Pro Text"><tspan x="0" y="0">Payment method</tspan></text><path d="M0,1,.887,0,4.732,4.337.887,8.675,0,7.674,2.957,4.337Z" transform="translate(250.777 3.943)" fill="#0668e8"/></g><g transform="translate(46.429 142.738)"><text transform="translate(21.355 10)" font-size="10" font-family="SFProText-Light, SF Pro Text" font-weight="300"><tspan x="0" y="0">Accepted payment methods</tspan></text><g transform="translate(0 18.927)"><g transform="translate(79.748 7.097)"><rect width="29.927" height="18.927" rx="2" fill="#2557d6"/><path d="M14.528,11H11.786l-.674-.766L10.4,11H5.945V6.067H10.48l.651.754.7-.754h3.036a1.887,1.887,0,0,1,1.183.288V6.067h2.713a2.254,2.254,0,0,1,1.135.288V6.067h4.113v.288a1.6,1.6,0,0,1,1-.288h2.3v.288a1.765,1.765,0,0,1,1.054-.288h1.557v.7H28.249c-.89,0-1.207.543-1.207,1.05,0,1.044.86,1.068,1.617,1.088l.158,0a.434.434,0,0,1,.3.079.293.293,0,0,1,.1.237.315.315,0,0,1-.1.231.468.468,0,0,1-.34.088H27.159V10.3h1.625a1.31,1.31,0,0,0,1.142-.452v.918A2.9,2.9,0,0,1,28.692,11h-2.18v-.315A1.937,1.937,0,0,1,25.366,11H18.494V9.857c0-.141-.015-.146-.153-.146h-.11v1.281H15.969V9.663a2.673,2.673,0,0,1-1.056.174h-.386V11ZM23.88,9.563v.757h1.64c.877,0,1.322-.375,1.322-1.114a.988.988,0,0,0-.252-.748,1.341,1.341,0,0,0-.961-.284l-.453-.012a.972.972,0,0,1-.327-.039.3.3,0,0,1-.058-.517.575.575,0,0,1,.337-.063h1.543V6.79H24.984a1.047,1.047,0,0,0-1.2,1.051c0,1.043.858,1.067,1.615,1.087l.158,0a.442.442,0,0,1,.3.079.3.3,0,0,1,.1.237.315.315,0,0,1-.1.23.487.487,0,0,1-.345.088ZM20.549,6.79V10.32h2.808V9.588H21.385v-.7h1.922v-.72h-1.92V7.52h1.972V6.79ZM17.524,9.03h.9a.82.82,0,0,1,.617.158.917.917,0,0,1,.136.625c0,.023,0,.046,0,.067v.442h.845v-.7a1.031,1.031,0,0,0-.139-.644.9.9,0,0,0-.412-.3.987.987,0,0,0,.6-.94.83.83,0,0,0-.433-.784,2.084,2.084,0,0,0-1.012-.167H16.678v3.531h.845V9.031Zm-6.411.121h0l1.035,1.168h1.636V9.136h1.05c.986,0,1.465-.387,1.465-1.183S15.835,6.79,14.879,6.79H12.192L11.119,7.947,10.087,6.79H6.7V10.32h3.333l1.076-1.168Zm1.83.83h0l-1.29-1.436,1.292-1.393v2.83Zm-3.333-.4H7.541v-.7H9.389v-.72H7.541V7.513h2.11l.92,1.025L9.611,9.574ZM29.927,8.516h0l-.01-.013a.38.38,0,0,0-.066-.072,1.322,1.322,0,0,0-.955-.284l-.456-.013a.957.957,0,0,1-.324-.039.266.266,0,0,1-.184-.263.274.274,0,0,1,.123-.254.581.581,0,0,1,.341-.064h1.533v1Zm-15.074-.1H13.766v-.9h1.1c.237,0,.515.079.515.433,0,.3-.192.467-.525.467ZM18.578,8.3H17.553V7.513h1.036a.811.811,0,0,1,.4.064.336.336,0,0,1,.174.315.383.383,0,0,1-.174.339.808.808,0,0,1-.412.075ZM7.359,4.925H5.892l-.252-.6v.6H2.811l-.323-.785H1.762l-.324.785H0v-.71H.913l.327-.789H2.992l.323.789H5.026V1.444L6.25,4.212h.739l1.218-2.76,0,2.76h.863V.683h-1.4L6.661,3.075,5.561.683H4.188V4.021L2.76.683H1.507L0,4.21V2.34L1.019,0H3.213L3.5.58V0H6.072l.563,1.272L7.176,0h8.17a1.376,1.376,0,0,1,.95.288V0h2.236V.286A2.893,2.893,0,0,1,19.936,0h3.24l.3.581V0h2.4L26.2.58V0H28.54V4.921H26.174l-.442-.743v.744H22.784l-.32-.785h-.726l-.327.785h-1.53a2.854,2.854,0,0,1-1.349-.3v.3H14.9V3.8c0-.158-.03-.167-.124-.17h-.136V4.922H7.612V4.313l-.252.61ZM19.966.682a1.7,1.7,0,0,0-1.278.412,1.859,1.859,0,0,0-.453,1.38,1.778,1.778,0,0,0,.45,1.347,1.814,1.814,0,0,0,1.22.394h.984l.315-.789h1.748l.327.789h1.714V1.563l1.595,2.649H27.78V.683h-.86V3.14L25.441.683H24.16V4.021L22.736.683H21.474L20.291,3.458h-.378a.82.82,0,0,1-.586-.181,1.223,1.223,0,0,1-.233-.833,1.173,1.173,0,0,1,.242-.8.8.8,0,0,1,.647-.209h.8V.682Zm-3.011,0V4.211h.858V.682ZM13.929,2.928h.9a.828.828,0,0,1,.614.151.932.932,0,0,1,.133.62c0,.024,0,.047,0,.068v.445h.848V3.519a1.025,1.025,0,0,0-.139-.648.978.978,0,0,0-.416-.3.989.989,0,0,0,.593-.94.828.828,0,0,0-.426-.782,1.953,1.953,0,0,0-1.017-.17H13.091V4.211h.841V2.929ZM9.7.682V4.211h2.811V3.481H10.535v-.7H12.46V2.049H10.537V1.418h1.972V.682Zm12.971,2.01H21.506l.579-1.407.581,1.405ZM2.7,2.692H1.556l.573-1.407L2.7,2.69ZM14.984,2.23H13.958V1.445h1.036a.858.858,0,0,1,.4.064.324.324,0,0,1,.177.315.363.363,0,0,1-.173.336.778.778,0,0,1-.413.069Z" transform="translate(0 3.966)" fill="#fff"/></g><g transform="translate(118.389 6.943)"><g transform="translate(0 0)"><path d="M18.874,9.621a9.529,9.529,0,0,1-9.437,9.621A9.528,9.528,0,0,1,0,9.621,9.529,9.529,0,0,1,9.437,0a9.529,9.529,0,0,1,9.437,9.621" transform="translate(0.001)" fill="#d9222a"/><path d="M9.227,0A9.307,9.307,0,0,0,2.888,2.491a9.7,9.7,0,0,0-.951,1.017H3.844a9.728,9.728,0,0,1,.719,1.019H1.218A9.636,9.636,0,0,0,.674,5.545H5.106a9.685,9.685,0,0,1,.4,1.018H.274A9.632,9.632,0,0,0,0,7.582H5.78a9.846,9.846,0,0,1,.214,2.039,9.768,9.768,0,0,1-.487,3.055H.274a9.621,9.621,0,0,0,.4,1.019H5.106a9.71,9.71,0,0,1-.544,1.019H1.218a9.719,9.719,0,0,0,.719,1.018H3.843a9.518,9.518,0,0,1-.953,1.019,9.306,9.306,0,0,0,6.337,2.484,9.529,9.529,0,0,0,9.436-9.614A9.529,9.529,0,0,0,9.227,0" transform="translate(12.882 0)" fill="#ee9f2d"/><path d="M29.989,8.01a.311.311,0,1,1,.305-.311A.311.311,0,0,1,29.989,8.01Zm0-.547a.237.237,0,1,0,.232.237.237.237,0,0,0-.232-.237Zm-.041.374h-.06V7.563H30a.121.121,0,0,1,.069.013.079.079,0,0,1,.034.069.074.074,0,0,1-.047.07l.049.12h-.069l-.043-.106h-.047v.108ZM14.018,5.228h-.007a1.568,1.568,0,0,1-1.735-1.77c0-1.364.749-2.354,1.782-2.354a1.318,1.318,0,0,1,1.372,1.435,4.359,4.359,0,0,1-.125.976H13.277a.7.7,0,0,0,.139.569.964.964,0,0,0,.747.247,2.366,2.366,0,0,0,1.058-.25l-.169.987a3.453,3.453,0,0,1-1.037.16ZM14.01,2.008c-.325,0-.556.252-.651.71h1.125V2.7a.74.74,0,0,0-.117-.552.461.461,0,0,0-.361-.136Zm7.607,3.221a.974.974,0,0,1-.94-1.084c0-.972.656-1.53,1.8-1.53a3.357,3.357,0,0,1,.416.031.994.994,0,0,0,.04-.257c0-.263-.178-.361-.657-.361h-.032a3.344,3.344,0,0,0-1.052.179c.01-.06.12-.75.142-.888v0A4.016,4.016,0,0,1,22.56,1.1a1.438,1.438,0,0,1,1.053.342,1.113,1.113,0,0,1,.293.821,5.1,5.1,0,0,1-.083.789l-.031.2c-.094.612-.252,1.637-.274,1.905h-.849l.019-.411a1.269,1.269,0,0,1-1.073.476Zm.925-1.853c-.58,0-.875.2-.875.6a.363.363,0,0,0,.367.4c.416,0,.718-.408.735-.991A1.667,1.667,0,0,0,22.542,3.375ZM19.479,5.228c-1.1,0-1.79-.807-1.79-2.106a4.586,4.586,0,0,1,.073-.814h-.054c-.334,0-.493.079-.546.285l-.386.218c-.072.621-.177,1.39-.323,2.349H15.428l.047-.267c.058-.4.124-.816.186-1.214.129-.817.262-1.662.348-2.486h.941a2.056,2.056,0,0,1-.032.4l.266-.063.059-.079c.219-.3.426-.582.789-.582a.923.923,0,0,1,.293.053A2.036,2.036,0,0,1,19.992,0a2.3,2.3,0,0,1,.971.334,1.686,1.686,0,0,0,.158.079l-.167,1.059a1.927,1.927,0,0,0-.916-.263c-.766,0-1.3.752-1.3,1.827,0,.744.357,1.189.956,1.189a1.96,1.96,0,0,0,.867-.251l-.181,1.112a3.164,3.164,0,0,1-.9.141Zm-8.28,0c-.522,0-.809-.31-.809-.871a5.825,5.825,0,0,1,.1-.789V3.561c.014-.088.028-.176.041-.263.059-.367.441-2.681.444-2.707h1.015l-.118.6h.614l-.138.953h-.617c-.045.287-.1.606-.145.887v.006c-.079.456-.142.849-.143.927,0,.2.108.294.351.294a.809.809,0,0,0,.276-.038l-.136.879a2.322,2.322,0,0,1-.737.129Zm-2.524,0A4.664,4.664,0,0,1,7.62,5.113H7.608l.136-.918a2.825,2.825,0,0,0,.918.158c.407,0,.588-.11.588-.359,0-.181-.062-.237-.479-.438a1.154,1.154,0,0,1-.78-1.1,1.281,1.281,0,0,1,.34-.946,1.635,1.635,0,0,1,1.2-.394,6.782,6.782,0,0,1,.9.079l-.145.92a5.547,5.547,0,0,0-.737-.06c-.333,0-.5.109-.5.324,0,.186.049.23.479.431a1.087,1.087,0,0,1,.723,1.1c0,.908-.5,1.326-1.583,1.326Zm-3.2,0a.973.973,0,0,1-.94-1.084c0-.972.655-1.53,1.8-1.53a3.385,3.385,0,0,1,.418.031,1.017,1.017,0,0,0,.039-.257c0-.263-.178-.361-.657-.361H6.1a3.331,3.331,0,0,0-1.052.181c.01-.06.12-.751.141-.889V1.313A4.017,4.017,0,0,1,6.42,1.1a1.5,1.5,0,0,1,1,.3,1.087,1.087,0,0,1,.342.867,5.155,5.155,0,0,1-.083.789l-.009.062c-.095.614-.271,1.755-.3,2.044H6.527l.018-.415a1.267,1.267,0,0,1-1.073.479ZM6.4,3.375c-.58,0-.875.2-.875.6a.362.362,0,0,0,.367.4c.416,0,.718-.408.736-.991A1.667,1.667,0,0,0,6.4,3.375ZM.961,5.16H0L.8.281H2.274l.091,2.731.9-2.731H4.9L4.112,5.158H3.087l.587-3.75L2.36,5.159h-.7L1.577,1.431.959,5.159Z" transform="translate(0.603 7.28)"/><path d="M4.109,4.878H3.083l.588-3.75L2.36,4.878h-.7L1.577,1.15.959,4.878H0L.8,0H2.274l.042,3.02,1-3.02H4.9L4.112,4.878" transform="translate(0.897 7.271)" fill="#fff"/><path d="M3.215,4.947c-.74,0-1.237-.662-1.237-1.646a3.452,3.452,0,0,1,.248-1.288H2.194c-.258,0-.418.158-.639.383-.065.065-.132.132-.208.2-.089.685-.2,1.453-.323,2.28H0l.047-.267C.106,4.208.17,3.8.237,3.4.362,2.58.5,1.735.581.912h.941c0,.072-.013.288-.044.594a8.337,8.337,0,0,0,.872.244A1.592,1.592,0,0,1,3.645.763a1.311,1.311,0,0,1,.978.647L4.851,0h1.01l-.78,4.878H4.112l.048-.369a1.2,1.2,0,0,1-.945.438Zm.624-3.1c-.468,0-.794.548-.794,1.332,0,.519.177.782.524.782.478,0,.812-.552.812-1.341,0-.5-.192-.774-.543-.774Z" transform="translate(24.461 7.56)"/><path d="M22.534,5.069c-.74,0-1.237-.662-1.237-1.646C21.3,2.1,22.06.991,22.964.991a1.151,1.151,0,0,1,.978.541L24.17.122h1.01L24.4,5h-.969l.048-.369A1.2,1.2,0,0,1,22.534,5.069Zm.624-3.1c-.468,0-.795.552-.795,1.333,0,.518.177.782.526.782.478,0,.812-.552.812-1.337C23.7,2.245,23.508,1.972,23.158,1.972Zm-6.084,3.1a.974.974,0,0,1-.936-1.084c0-.972.656-1.529,1.8-1.529a3.381,3.381,0,0,1,.417.031,1.006,1.006,0,0,0,.039-.258c0-.263-.178-.36-.657-.36H17.7a3.374,3.374,0,0,0-1.053.178c.01-.059.12-.749.142-.886V1.155A3.971,3.971,0,0,1,18.021.946a1.438,1.438,0,0,1,1.053.342,1.113,1.113,0,0,1,.293.821,5.1,5.1,0,0,1-.083.789l-.006.035C19.189,3.51,19,4.711,18.979,5h-.85l.02-.411a1.27,1.27,0,0,1-1.074.476ZM18,3.217c-.58,0-.875.2-.875.6a.363.363,0,0,0,.367.4c.416,0,.718-.408.735-.991A1.667,1.667,0,0,0,18,3.217ZM14.935,5.069c-1.1,0-1.79-.807-1.79-2.106,0-1.745.949-2.964,2.31-2.964A3.535,3.535,0,0,1,16.58.253l-.167,1.059a1.927,1.927,0,0,0-.916-.263c-.766,0-1.3.752-1.3,1.827,0,.744.357,1.188.956,1.188a1.954,1.954,0,0,0,.867-.251l-.178,1.112a3.143,3.143,0,0,1-.906.144Zm-5.461,0H9.467A1.568,1.568,0,0,1,7.732,3.3c0-1.364.749-2.354,1.782-2.354A1.318,1.318,0,0,1,10.89,2.381a4.372,4.372,0,0,1-.125.976H8.738a.7.7,0,0,0,.139.569.964.964,0,0,0,.747.247,2.366,2.366,0,0,0,1.058-.251l-.169.987a3.453,3.453,0,0,1-1.039.161ZM9.466,1.848c-.325,0-.552.252-.65.71H9.94v-.02a.74.74,0,0,0-.117-.552.461.461,0,0,0-.357-.138ZM6.654,5.069c-.522,0-.809-.309-.809-.871a5.874,5.874,0,0,1,.1-.8V3.391l.04-.252c.058-.369.44-2.681.443-2.707H7.448l-.115.6h.522l-.142.953H7.188c-.045.288-.1.607-.146.89-.079.459-.143.852-.144.929,0,.206.1.294.351.294a.8.8,0,0,0,.276-.037l-.135.878a2.3,2.3,0,0,1-.737.129Zm-2.524,0a4.658,4.658,0,0,1-1.064-.117c0-.041.132-.881.138-.916a2.829,2.829,0,0,0,.918.158c.407,0,.588-.11.588-.359,0-.181-.062-.237-.479-.437a1.155,1.155,0,0,1-.78-1.1,1.281,1.281,0,0,1,.34-.953,1.635,1.635,0,0,1,1.2-.394,6.894,6.894,0,0,1,.9.079l-.145.916a5.581,5.581,0,0,0-.737-.061c-.333,0-.5.11-.5.325,0,.185.049.229.479.431a1.087,1.087,0,0,1,.722,1.1C5.71,4.648,5.209,5.069,4.131,5.069Zm-3.2,0A.974.974,0,0,1,0,3.986c0-.972.656-1.53,1.8-1.53a3.381,3.381,0,0,1,.417.031,1,1,0,0,0,.039-.258c0-.263-.178-.36-.657-.36H1.565a3.372,3.372,0,0,0-1.052.178c.009-.06.116-.75.141-.887v0A3.98,3.98,0,0,1,1.882.946a1.5,1.5,0,0,1,1,.3,1.087,1.087,0,0,1,.342.867,5.215,5.215,0,0,1-.083.789l-.006.036c-.089.577-.274,1.778-.3,2.071H1.989L2.008,4.6a1.284,1.284,0,0,1-1.073.474Zm.929-1.852c-.58,0-.875.2-.875.6a.362.362,0,0,0,.367.4c.416,0,.718-.408.736-.991A1.667,1.667,0,0,0,1.863,3.217ZM25.155,5a.311.311,0,1,1,.3-.311.311.311,0,0,1-.3.311Zm0-.547a.237.237,0,1,0,.231.237A.237.237,0,0,0,25.155,4.453ZM20.344,5H19.319l.047-.269c.058-.4.124-.815.186-1.213.129-.817.262-1.662.349-2.486h.941a2.247,2.247,0,0,1-.036.427c-.009.058-.017.117-.024.175.279-.418.493-.644.815-.644a.812.812,0,0,1,.167.019,3.979,3.979,0,0,0-.389,1.151q-.042,0-.084,0c-.5,0-.6.543-.946,2.845ZM11.911,5H10.886l.047-.269c.058-.4.124-.815.186-1.213.129-.817.262-1.662.349-2.486h.941a2.277,2.277,0,0,1-.037.433q-.013.084-.024.168c.279-.418.492-.644.814-.644a.808.808,0,0,1,.168.019,4.022,4.022,0,0,0-.389,1.151.847.847,0,0,0-.085,0c-.5,0-.6.543-.946,2.845ZM25.27,4.826H25.2l-.045-.109h-.046v.107h-.062V4.553h.113a.117.117,0,0,1,.074.013.08.08,0,0,1-.012.139l.05.119Z" transform="translate(5.436 7.149)" fill="#fff"/></g></g><g transform="translate(41.106 7.097)"><rect width="30" height="19" rx="2" transform="translate(-0.422 0.388)" fill="#0e4595"/><path d="M12.883,8.123a6.7,6.7,0,0,1-2.374-.42L10.8,5.939l.274.125a4.44,4.44,0,0,0,2.007.413c.611,0,1.27-.237,1.275-.768,0-.344-.274-.591-1.1-.976-.808-.375-1.879-1.006-1.868-2.137C11.4,1.068,12.886,0,14.995,0a5.425,5.425,0,0,1,1.911.33l-.289,1.7-.191-.091a3.881,3.881,0,0,0-1.527-.3h-.069c-.839,0-1.221.351-1.221.677,0,.371.451.612,1.2.976,1.229.561,1.8,1.24,1.79,2.138C16.579,7.065,15.122,8.123,12.883,8.123ZM9.2,8.03H7.074L8.4.158h2.129L9.2,8.026Zm9.5,0H16.462L19.628.812A1.057,1.057,0,0,1,20.744.158h1.647l1.726,7.861H22.139c0-.013-.2-.915-.259-1.179H19.152c-.079.2-.411,1.08-.449,1.183h0Zm2.208-5.73c-.059.158-.14.367-.2.52s-.087.226-.086.229l-.009.023c-.079.211-.677,1.755-.84,2.175h1.77l-.493-2.271ZM1.9,8.016h0L0,1.135a6.124,6.124,0,0,1,2.953,3.3l.223,1.09L5.262.158H7.52L4.164,8.012Z" transform="translate(4.043 5.404)" fill="#fff"/><path d="M3.465,0H.028L0,.162A7.064,7.064,0,0,1,5.179,4.277L4.431.662A.893.893,0,0,0,3.465,0" transform="translate(1.806 5.566)" fill="#f2ae14"/></g><g transform="translate(158.662 7.212)"><path d="M0,2.366A2.366,2.366,0,0,1,2.366,0H27.619a2.366,2.366,0,0,1,2.366,2.366V16.588a2.366,2.366,0,0,1-2.366,2.366H2.366A2.366,2.366,0,0,1,0,16.588Z" transform="translate(0 0)" fill="#f7f7f7" stroke="#aeaeae" stroke-miterlimit="10" stroke-width="1"/><path d="M19.437,8.072A2.366,2.366,0,0,0,21.8,5.706L21.8,0C19.8,1.27,12.278,5.652,0,8.072Z" transform="translate(7.825 10.69)" fill="#f58220"/><g transform="translate(5.811 7.56)"><g transform="translate(17.387 0.109)"><path d="M.06.263H0V0H.079c.065,0,.1.028.1.079A.072.072,0,0,1,.123.153L.207.26H.128L.06.158v.1Z" transform="translate(0.124 0.098)" fill="#231f20"/><path d="M.215.457A.222.222,0,0,1,0,.229.22.22,0,0,1,.215,0,.221.221,0,0,1,.427.229.221.221,0,0,1,.215.457Zm0-.416A.178.178,0,0,0,.042.229.18.18,0,0,0,.214.415.179.179,0,0,0,.384.229.179.179,0,0,0,.214.041Z" transform="translate(0 0)" fill="#231f20"/></g><path d="M.546,2.965H0V0H.81c.631,0,.99.315.99.875a.779.779,0,0,1-.638.841l.881,1.248h-.67L.617,1.774H.546V2.964Zm0-2.5v.9H.7c.349,0,.534-.158.534-.458S1.058.466.714.466Z" transform="translate(15.498 0.066)" fill="#231f20"/><path d="M0,2.965H1.548v-.5h-1v-.8H1.51v-.5H.546V.5h1V0H0V2.965" transform="translate(13.59 0.066)" fill="#231f20"/><path d="M1.341,1.991.6,0H0L1.188,3.041h.293L2.69,0H2.1L1.341,1.991" transform="translate(10.653 0.066)" fill="#231f20"/><path d="M0,1.524a1.491,1.491,0,1,0,2.98.017A1.5,1.5,0,0,0,1.492,0,1.508,1.508,0,0,0,0,1.524Z" transform="translate(7.781 0.011)" fill="#f48027"/><path d="M0,1.55A1.494,1.494,0,0,0,1.477,3.1a1.431,1.431,0,0,0,.685-.173V2.244a.853.853,0,0,1-.659.324.946.946,0,0,1-.94-1.023A.962.962,0,0,1,1.477.528a.894.894,0,0,1,.685.334V.181A1.33,1.33,0,0,0,1.489,0,1.516,1.516,0,0,0,0,1.55" transform="translate(5.412 0)" fill="#231f20"/><path d="M1.128,1.183C.8,1.054.705.97.705.81A.364.364,0,0,1,1.111.485a.558.558,0,0,1,.441.237L1.837.327A1.183,1.183,0,0,0,1.015,0,.843.843,0,0,0,.142.848c0,.409.176.618.688.814a2.084,2.084,0,0,1,.378.169.36.36,0,0,1,.164.307.409.409,0,0,1-.424.418.643.643,0,0,1-.6-.394L0,2.523a1.075,1.075,0,0,0,.969.565.928.928,0,0,0,.964-.976c0-.473-.184-.685-.805-.926" transform="translate(3.307 0.017)" fill="#231f20"/><path d="M0,0H.546V2.965H0Z" transform="translate(2.555 0.066)" fill="#231f20"/><path d="M.8,2.964H0V0H.8A1.428,1.428,0,0,1,2.3,1.484a1.539,1.539,0,0,1-.508,1.139A1.414,1.414,0,0,1,.8,2.964ZM.546.5V2.462H.692a1,1,0,0,0,.748-.237,1.047,1.047,0,0,0,.3-.748,1.025,1.025,0,0,0-.3-.737A.971.971,0,0,0,.692.505Z" transform="translate(0 0.067)" fill="#231f20"/></g></g><g transform="translate(0 0)"><path d="M0,19.588l1.38-4.2L16.561,0l2.76,2.8L4.14,18.189Z" transform="translate(2.76)" fill="none" stroke="#000" stroke-linecap="round" stroke-linejoin="round" stroke-miterlimit="10" stroke-width="1"/><path d="M0,0,2.76,2.8" transform="translate(4.14 15.39)" fill="none" stroke="#000" stroke-linecap="round" stroke-linejoin="round" stroke-miterlimit="10" stroke-width="1"/><path d="M0,0H16.561" transform="translate(11.04 20.288)" fill="none" stroke="#000" stroke-linecap="round" stroke-linejoin="round" stroke-miterlimit="10" stroke-width="1"/><path d="M0,0H11.04" transform="translate(16.561 16.09)" fill="none" stroke="#000" stroke-linecap="round" stroke-linejoin="round" stroke-miterlimit="10" stroke-width="1"/><path d="M17.251,0H31.741V18.189H0V0H11.731" transform="translate(0 7.695)" fill="none" stroke="#000" stroke-linecap="round" stroke-linejoin="round" stroke-miterlimit="10" stroke-width="1"/><path d="M0,0,2.76,2.8" transform="translate(14.491 4.897)" fill="none" stroke="#000" stroke-linecap="round" stroke-linejoin="round" stroke-miterlimit="10" stroke-width="1"/><path d="M0,4.2,4.14,0,5.866,1.749" transform="translate(11.04 0.699)" fill="none" stroke="#000" stroke-linecap="round" stroke-linejoin="round" stroke-miterlimit="10" stroke-width="1"/></g></g></g></g></g><g transform="translate(20.898 249.2)"><g transform="translate(0 0)"><g fill="none" stroke="#0a0" stroke-miterlimit="10" stroke-width="1"><circle cx="7.886" cy="7.886" r="7.886" stroke="none"/><circle cx="7.886" cy="7.886" r="7.386" fill="none"/></g><circle cx="7.886" cy="7.886" r="7.886" fill="none"/><circle cx="5.52" cy="5.52" r="5.52" transform="translate(2.366 2.366)" fill="#0a0"/><text transform="translate(25.235 11.789)" font-size="12" font-family="SFProText-Light, SF Pro Text" font-weight="300"><tspan x="0" y="0">Pay Now</tspan></text></g><g transform="translate(132.092 0)"><g transform="translate(0)"><g transform="translate(0.011 -0.2)" fill="none" stroke="#cecfcf" stroke-miterlimit="10" stroke-width="1"><circle cx="8" cy="8" r="8" stroke="none"/><circle cx="8" cy="8" r="7.5" fill="none"/></g><circle cx="8" cy="8" r="8" transform="translate(0.011 -0.2)" fill="none"/></g><text transform="translate(25.011 11.8)" font-size="12" font-family="SFProText-Light, SF Pro Text" font-weight="300"><tspan x="0" y="0">Pay Later</tspan></text></g></g><path d="M.2,1H295.77" transform="translate(-0.042 71.552)" fill="none" stroke="#d2d3d2" stroke-linecap="square" stroke-miterlimit="10" stroke-width="1"/><g transform="translate(0 585.146)"><g transform="matrix(1, 0, 0, 1, -143, -650.15)" filter="url(#r)"><rect width="296" height="55" transform="translate(143 650)" fill="rgba(248,248,248,0.82)"/></g><g transform="translate(11.04 11.829)"><g transform="translate(139.978)" fill="#ffce0a" stroke="#ffce0a" stroke-miterlimit="10" stroke-width="1.778"><rect width="132.486" height="31.544" rx="15.772" stroke="none"/><rect x="0.889" y="0.889" width="130.708" height="29.766" rx="14.883" fill="none"/></g><text transform="translate(182.152 19.675)" font-size="12" font-family="SFProDisplay-Regular, SF Pro Display"><tspan x="0" y="0">Continue</tspan></text><g transform="translate(-0.04 0.024)" fill="none" stroke="#ffce0a" stroke-miterlimit="10" stroke-width="1.778"><rect width="133" height="32" rx="16" stroke="none"/><rect x="0.889" y="0.889" width="131.222" height="30.222" rx="15.111" fill="none"/></g><text transform="translate(47.745 19.675)" font-size="12" font-family="SFProDisplay-Regular, SF Pro Display"><tspan x="0" y="0">Cancel</tspan></text></g></g><g transform="translate(246.44 35.867)"><g transform="translate(0 0)"><path d="M6.309,9.463H5.52L3.712,11.272a.789.789,0,0,1-1.346-.558V9.463H.789A.789.789,0,0,1,0,8.675V.789A.789.789,0,0,1,.789,0H14.195a.789.789,0,0,1,.789.789V5.126" fill="none" stroke="#000" stroke-linecap="round" stroke-linejoin="round" stroke-miterlimit="10" stroke-width="1.2"/><path d="M4.337,6.309,6.574,8.3a.789.789,0,0,0,1.312-.59v-1.4h.789a.789.789,0,0,0,.789-.789V.789A.789.789,0,0,0,8.675,0H.789A.789.789,0,0,0,0,.789V5.52a.789.789,0,0,0,.789.789Z" transform="translate(8.675 7.097)" fill="none" stroke="#000" stroke-linecap="round" stroke-linejoin="round" stroke-miterlimit="10" stroke-width="1.2"/></g></g><rect width="296" height="31" transform="translate(0 73)"/><text transform="translate(102.781 93.438)" fill="#fff" font-size="14" font-family="SFProText-Regular, SF Pro Text"><tspan x="0" y="0">408-555-1212</tspan></text></g></g><g transform="translate(12079 -10026)" fill="none" stroke="#000" stroke-width="2"><rect width="296" height="640" rx="28" stroke="none"/><rect x="1" y="1" width="294" height="638" rx="27" fill="none"/></g></g><text transform="translate(12959 -4410)" font-size="14" font-family="Lato-Medium, Lato" font-weight="500" letter-spacing="0.008em"><tspan x="0" y="0">1st iteration with Pay Now- Pay Later option</tspan></text></g></svg>