<svg xmlns="http://www.w3.org/2000/svg" xmlns:xlink="http://www.w3.org/1999/xlink" width="375" height="812" viewBox="0 0 375 812"><defs><filter id="a" x="11.958" y="446.357" width="181.503" height="39.765" filterUnits="userSpaceOnUse"><feOffset dy="3" input="SourceAlpha"/><feGaussianBlur stdDeviation="0.5" result="b"/><feFlood flood-opacity="0.039"/><feComposite operator="in" in2="b"/><feComposite in="SourceGraphic"/></filter><filter id="c" x="8.5" y="491.5" width="358" height="135" filterUnits="userSpaceOnUse"><feOffset dy="1" input="SourceAlpha"/><feGaussianBlur stdDeviation="0.5" result="d"/><feFlood flood-opacity="0.102"/><feComposite operator="in" in2="d"/><feComposite in="SourceGraphic"/></filter><clipPath id="e"><rect width="355" height="40" rx="8.91" fill="rgba(118,118,128,0.12)"/></clipPath><clipPath id="f"><rect width="177.5" height="34.286" fill="none"/></clipPath><filter id="g" x="11.958" y="446.357" width="181.503" height="39.765" filterUnits="userSpaceOnUse"><feOffset dy="3" input="SourceAlpha"/><feGaussianBlur stdDeviation="0.5" result="h"/><feFlood flood-opacity="0.039"/><feComposite operator="in" in2="h"/><feComposite in="SourceGraphic"/></filter><clipPath id="i"><g transform="matrix(1, 0, 0, 1, 0, 0)" filter="url(#a)"><rect width="177.503" height="34.265" rx="6.93" fill="#fff" stroke="rgba(0,0,0,0.04)" stroke-miterlimit="10" stroke-width="0.5"/></g></clipPath><filter id="j" x="8.5" y="129.5" width="358" height="267" filterUnits="userSpaceOnUse"><feOffset dy="1" input="SourceAlpha"/><feGaussianBlur stdDeviation="0.5" result="k"/><feFlood flood-opacity="0.102"/><feComposite operator="in" in2="k"/><feComposite in="SourceGraphic"/></filter><clipPath id="m"><rect width="375" height="812"/></clipPath></defs><g id="l" clip-path="url(#m)"><rect width="375" height="812" fill="#fff"/><g transform="translate(0 85)"><rect width="375" height="887" transform="translate(0 -85)" fill="rgba(109,114,120,0.08)"/></g><g transform="translate(10 678)"><rect width="90" height="98" fill="none"/><g transform="translate(18 3)"><text transform="translate(7.002 72)" fill="rgba(0,0,0,0.85)" font-size="11" font-family="SFProDisplay-Regular, SF Pro Display" letter-spacing="0.053em"><tspan x="0" y="0">Manage </tspan></text><text transform="translate(6.219 88)" fill="rgba(0,0,0,0.85)" font-size="11" font-family="SFProDisplay-Regular, SF Pro Display" letter-spacing="0.053em"><tspan x="0" y="0">Autopay</tspan></text><circle cx="26.75" cy="26.75" r="26.75" transform="translate(0.25 0.25)" fill="#fff" stroke="rgba(0,0,0,0.25)" stroke-width="0.5"/><g transform="translate(12.6 14.4)"><g transform="translate(10.039 4.183)"><path d="M7.948,3.137H2.663A2.086,2.086,0,0,0,.418,5.382c0,2.461,7.529,4.343,7.529,6.8A2.2,2.2,0,0,1,5.7,14.431H.418" fill="none" stroke="#000" stroke-linecap="round" stroke-linejoin="round" stroke-width="1.5" fill-rule="evenodd"/><line y1="2.824" transform="translate(4.183 0.314)" fill="none" stroke="#000" stroke-linecap="round" stroke-linejoin="round" stroke-width="1.5"/><line y1="2.824" transform="translate(4.183 14.431)" fill="none" stroke="#000" stroke-linecap="round" stroke-linejoin="round" stroke-width="1.5"/></g><path d="M21.752,2.924A12.235,12.235,0,0,0,1.987,12.567V15.39" fill="none" stroke="#000" stroke-linecap="round" stroke-linejoin="round" stroke-width="1.5" fill-rule="evenodd"/><path d="M6.693,22.212a12.237,12.237,0,0,0,19.765-9.645V9.743" fill="none" stroke="#000" stroke-linecap="round" stroke-linejoin="round" stroke-width="1.5" fill-rule="evenodd"/><path d="M.1,13.508,1.987,15.39l1.882-1.882" fill="none" stroke="#000" stroke-linecap="round" stroke-linejoin="round" stroke-width="1.882" fill-rule="evenodd"/><path d="M28.34,11.625,26.458,9.743l-1.882,1.882" fill="none" stroke="#000" stroke-linecap="round" stroke-linejoin="round" stroke-width="1.882" fill-rule="evenodd"/></g></g><g transform="translate(94 3)"><text transform="translate(26.002 72)" fill="rgba(0,0,0,0.85)" font-size="11" font-family="SFProDisplay-Regular, SF Pro Display" letter-spacing="0.053em"><tspan x="0" y="0">Manage </tspan></text><text transform="translate(0.303 88)" fill="rgba(0,0,0,0.85)" font-size="11" font-family="SFProDisplay-Regular, SF Pro Display" letter-spacing="0.053em"><tspan x="0" y="0">Payment Methods</tspan></text><g transform="translate(19)"><circle cx="26.75" cy="26.75" r="26.75" transform="translate(0.25 0.25)" fill="#fff" stroke="rgba(0,0,0,0.25)" stroke-width="0.5"/><g transform="translate(14.4 16.3)"><path d="M23.228,18.362v3.305a1.653,1.653,0,0,1-1.653,1.653h-19A2.479,2.479,0,0,1,.092,20.841V2.662A2.479,2.479,0,0,1,2.571.184H19.923a1.653,1.653,0,0,1,1.653,1.653V4.315" fill="none" stroke="#000" stroke-linecap="round" stroke-linejoin="round" stroke-width="1.5" fill-rule="evenodd"/><path d="M23.228,18.362a1.653,1.653,0,0,0,1.653-1.653V11.752A1.653,1.653,0,0,0,23.228,10.1H19.1a4.131,4.131,0,0,0,0,8.263Z" fill="none" stroke="#000" stroke-linecap="round" stroke-linejoin="round" stroke-width="1.5" fill-rule="evenodd"/><path d="M19.1,13.817a.413.413,0,1,1-.413.413.413.413,0,0,1,.413-.413" fill="none" stroke="#000" stroke-linecap="round" stroke-linejoin="round" stroke-width="1.5" fill-rule="evenodd"/><path d="M23.228,10.1V5.968a1.653,1.653,0,0,0-1.653-1.653H5.463a1.935,1.935,0,0,1-1.778-.986" fill="none" stroke="#000" stroke-linecap="round" stroke-linejoin="round" stroke-width="1.5" fill-rule="evenodd"/></g></g></g><g transform="translate(191)"><rect width="90" height="98" fill="none"/><text transform="translate(25.002 75)" fill="rgba(0,0,0,0.85)" font-size="11" font-family="SFProDisplay-Regular, SF Pro Display" letter-spacing="0.053em"><tspan x="0" y="0">Manage </tspan></text><text transform="translate(34.532 91)" fill="rgba(0,0,0,0.85)" font-size="11" font-family="SFProDisplay-Regular, SF Pro Display" letter-spacing="0.053em"><tspan x="0" y="0">eBill</tspan></text><g transform="translate(18 3)"><circle cx="26.75" cy="26.75" r="26.75" transform="translate(0.25 0.25)" fill="#fff" stroke="rgba(0,0,0,0.25)" stroke-width="0.5"/><g transform="translate(15.3 15.3)"><path d="M19.333,13V1.685a1.6,1.6,0,0,0-1.6-1.6H4.966a1.6,1.6,0,0,0-1.6,1.6V13" fill="none" stroke="#000" stroke-linecap="round" stroke-linejoin="round" stroke-width="1.5" fill-rule="evenodd"/><path d="M21.231,11.491a.8.8,0,0,1,1.294.625V22.439a1.6,1.6,0,0,1-1.6,1.6H1.774a1.6,1.6,0,0,1-1.6-1.6V12.116a.8.8,0,0,1,1.294-.625l7.908,6.272a3.193,3.193,0,0,0,3.944,0Z" fill="none" stroke="#000" stroke-linecap="round" stroke-linejoin="round" stroke-width="1.5" fill-rule="evenodd"/><line x2="3.131" y2="3.131" transform="translate(15.404 16.113)" fill="none" stroke="#000" stroke-linecap="round" stroke-linejoin="round" stroke-width="1.5"/><line x1="3.131" y2="3.131" transform="translate(4.168 16.113)" fill="none" stroke="#000" stroke-linecap="round" stroke-linejoin="round" stroke-width="1.5"/><path d="M11.564,10.032a2.367,2.367,0,0,0,1.977.931c1.212,0,2.2-.737,2.2-1.646s-.98-1.645-2.191-1.645-2.194-.737-2.194-1.647.983-1.646,2.194-1.646a2.364,2.364,0,0,1,1.977.931" fill="none" stroke="#000" stroke-linecap="round" stroke-linejoin="round" stroke-width="1.596" fill-rule="evenodd"/><line y2="1.097" transform="translate(13.546 10.964)" fill="none" stroke="#000" stroke-linecap="round" stroke-linejoin="round" stroke-width="1.596"/><line y2="1.097" transform="translate(13.546 3.281)" fill="none" stroke="#000" stroke-linecap="round" stroke-linejoin="round" stroke-width="1.5"/><line x2="1.596" transform="translate(6.562 4.079)" fill="none" stroke="#000" stroke-linecap="round" stroke-linejoin="round" stroke-width="1.5"/><line x2="1.596" transform="translate(6.562 7.272)" fill="none" stroke="#000" stroke-linecap="round" stroke-linejoin="round" stroke-width="1.5"/><line x2="1.596" transform="translate(6.562 10.464)" fill="none" stroke="#000" stroke-linecap="round" stroke-linejoin="round" stroke-width="1.5"/></g></g></g></g><g transform="translate(1)"><path d="M.2,1H375" transform="translate(0 90)" fill="none" stroke="#d2d3d2" stroke-linecap="square" stroke-miterlimit="10" stroke-width="1"/><rect width="375" height="90" transform="translate(1)" fill="#fff"/><g transform="translate(16 46)"><g transform="translate(0.487 0.104)"><path d="M0,16.214C3.1,12.159,5.544,7.4,5.544,3.982,5.544,2.2,4.282.95,2.637,0,2.667,3.717,1.4,12.426,0,16.214" transform="translate(10.351 6.564)" fill="#ffce0a"/><path d="M0,18.369C7.276,15.9,17.821,10.151,25.154,5.015c.615-.43,1.1-.831,1.1-1.527,0-1.215-2.192-2.84-3.26-3.488C17.222,6.084,5.737,15.2,0,18.369" transform="translate(0.173 14.392)" fill="#ffce0a"/><path d="M0,17.183C4.487,14.037,11,8.12,13.208,4.9a3.345,3.345,0,0,0,.905-1.988c0-1.3-1.494-2.252-2.57-2.913C8.97,6.157,3.18,13.822,0,17.183" transform="translate(6.92 10.41)" fill="#ffce0a"/><path d="M3.645,15.5a32.68,32.68,0,0,0-.5-11.526A6.563,6.563,0,0,0,0,0,92.625,92.625,0,0,1,3.645,15.5" transform="translate(7.361 3.365)" fill="#ffce0a"/><path d="M9.731,13.417C8.371,9.69,4.985,1.925,0,0A139.2,139.2,0,0,1,9.731,13.417" fill="#ffce0a"/></g></g><text transform="translate(0 52)" font-size="17" font-family="SFProText-Semibold, SF Pro Text" font-weight="600" letter-spacing="-0.026em"><tspan x="163.075" y="16">Billing</tspan></text></g><g transform="translate(271 50)"><g transform="translate(0 3)"><path d="M8,12H7L4.707,14.293A1,1,0,0,1,3,13.586V12H1a1,1,0,0,1-1-1V1A1,1,0,0,1,1,0H18a1,1,0,0,1,1,1V6.5" transform="translate(0.5 0.482)" fill="none" stroke="#000" stroke-linecap="round" stroke-linejoin="round" stroke-miterlimit="10" stroke-width="1.2"/><path d="M5.5,8l2.836,2.521A1,1,0,0,0,10,9.773V8h1a1,1,0,0,0,1-1V1a1,1,0,0,0-1-1H1A1,1,0,0,0,0,1V7A1,1,0,0,0,1,8Z" transform="translate(11.5 9.482)" fill="none" stroke="#000" stroke-linecap="round" stroke-linejoin="round" stroke-miterlimit="10" stroke-width="1.2"/></g><path d="M1,18a1,1,0,0,1-1-1V15.5C0,12.508,6,11,9,11s9,1.508,9,4.5V17a1,1,0,0,1-1,1ZM5,4A4,4,0,1,1,9,8,4,4,0,0,1,5,4Z" transform="translate(71 5)" fill="none" stroke="#000" stroke-miterlimit="10" stroke-width="1.2"/><g transform="translate(45)"><circle cx="3.5" cy="3.5" r="3.5" fill="#7d4eff"/></g><g transform="translate(36 5)"><path d="M17.8,15.4H8.333A1.592,1.592,0,0,1,6.8,14.268L2.9,1.483A.4.4,0,0,0,2.519,1.2H.6A.6.6,0,0,1,.6,0H2.519a1.592,1.592,0,0,1,1.53,1.133l1.1,3.592.143.106h16.1a.6.6,0,0,1,.574.774l-2.631,8.66A1.593,1.593,0,0,1,17.8,15.4ZM6.017,6.031a.35.35,0,0,0-.35.35.362.362,0,0,0,.015.1l2.269,7.434a.4.4,0,0,0,.382.283H17.8a.4.4,0,0,0,.382-.283L20.44,6.483a.349.349,0,0,0-.233-.437.337.337,0,0,0-.1-.015Z" transform="translate(0.1 0.2)"/><circle cx="1.65" cy="1.65" r="1.65" transform="translate(7.8 17.1)"/><circle cx="1.65" cy="1.65" r="1.65" transform="translate(16 17.1)"/></g></g><g transform="translate(10 414)"><g transform="translate(0 78)"><g transform="matrix(1, 0, 0, 1, -10, -492)" filter="url(#c)"><rect width="355" height="132" rx="8" transform="translate(10 492)" fill="#fff"/></g><rect width="340" height="0.5" transform="translate(15 68)" fill="#cececf"/><g transform="translate(16 16)"><g transform="translate(1)"><g transform="translate(43 2)"><g transform="translate(0 19)"><text transform="translate(0 10)" fill="#6d7278" font-size="10" font-family="SFProDisplay-Regular, SF Pro Display" letter-spacing="0.091em"><tspan x="0" y="0" xml:space="preserve">AMEX  ••••1234</tspan></text></g><text transform="translate(0 11)" font-size="12" font-family="SFProDisplay-Regular, SF Pro Display" letter-spacing="0.017em"><tspan x="0" y="0">Payment Arrangement</tspan></text></g><text transform="translate(9.5 13)" fill="#6d7278" font-size="11" font-family="SFProDisplay-Regular, SF Pro Display" letter-spacing="0.017em"><tspan x="-9.286" y="0">Sep</tspan></text><text transform="translate(9.5 31)" fill="#6d7278" font-size="16" font-family="SFProDisplay-Regular, SF Pro Display" letter-spacing="0.042em"><tspan x="-8.717" y="0">14</tspan></text><text transform="translate(303 23)" font-size="14" font-family="SFProDisplay-Regular, SF Pro Display" letter-spacing="0.017em"><tspan x="-52.772" y="0">$100.00</tspan></text><g transform="translate(315 12)"><path d="M0,1.278,1.282,0,6.837,5.54,1.282,11.08,0,9.8,4.273,5.54Z" transform="translate(0 0)" fill="#0668e8"/></g></g><g transform="translate(0 64)"><text transform="translate(9 13)" fill="#6d7278" font-size="11" font-family="SFProDisplay-Regular, SF Pro Display" letter-spacing="0.017em"><tspan x="-8.62" y="0">Oct</tspan></text><text transform="translate(9 32)" fill="#6d7278" font-size="16" font-family="SFProDisplay-Regular, SF Pro Display" letter-spacing="0.042em"><tspan x="-8.654" y="0">01</tspan></text><g transform="translate(44 2)"><text transform="translate(0 11)" font-size="12" font-family="SFProDisplay-Regular, SF Pro Display" letter-spacing="0.017em"><tspan x="0" y="0">Scheduled Payment</tspan></text><text transform="translate(0 30)" fill="#6d7278" font-size="10" font-family="SFProDisplay-Regular, SF Pro Display" letter-spacing="0.091em"><tspan x="0" y="0">MASTERCARD ••••1234</tspan></text><text transform="translate(260 22)" font-size="14" font-family="SFProDisplay-Regular, SF Pro Display" letter-spacing="0.017em"><tspan x="-54.488" y="0">$200.00</tspan></text><g transform="translate(272 11)"><path d="M0,1.278,1.282,0,6.837,5.54,1.282,11.08,0,9.8,4.273,5.54Z" transform="translate(0 0)" fill="#0668e8"/></g></g></g></g></g><text transform="translate(1 20)" font-size="16" font-family="SFProDisplay-Bold, SF Pro Display" font-weight="700" letter-spacing="0.029em"><tspan x="0" y="0">Your Payment Activity</tspan></text><g transform="translate(1 30)"><rect width="355" height="40" rx="8.91" fill="rgba(118,118,128,0.12)"/><g clip-path="url(#e)"><g transform="translate(178.725 8)"><rect width="1" height="24" rx="0.5" fill="#8e8e93" opacity="0.3"/></g><g transform="translate(177.5 2.857)"><rect width="177.5" height="34.286" fill="none"/></g><g transform="translate(2.958 2.857)"><g transform="matrix(1, 0, 0, 1, -13.96, -446.86)" filter="url(#g)"><g transform="translate(13.96 446.86)" fill="#fff" stroke="rgba(0,0,0,0.04)" stroke-miterlimit="10" stroke-width="0.5"><rect width="177.503" height="34.265" rx="6.93" stroke="none"/><rect x="-0.25" y="-0.25" width="178.003" height="34.765" rx="7.18" fill="none"/></g></g><g clip-path="url(#i)"><text transform="translate(49 10)" font-size="13" font-family="SFProText-Semibold, SF Pro Text" font-weight="600" letter-spacing="-0.006em"><tspan x="6.445" y="12">Scheduled</tspan></text></g></g></g></g><text transform="translate(266.5 55)" font-size="13" font-family="SFProText-Regular, SF Pro Text" letter-spacing="-0.006em"><tspan x="-52.505" y="0">Recent Payments</tspan></text></g><text transform="translate(11 664)" font-size="16" font-family="SFProDisplay-Bold, SF Pro Display" font-weight="700" letter-spacing="0.029em"><tspan x="0" y="0">Your Billing Options</tspan></text><text transform="translate(11 120)" font-size="16" font-family="SFProDisplay-Bold, SF Pro Display" font-weight="700" letter-spacing="0.029em"><tspan x="0" y="0">Your Current Bill</tspan></text><g transform="translate(1 742)"><path d="M0,69H375V0H0Z" fill="#fff"/><g transform="translate(18 15)"><text transform="translate(21 36)" fill="#373737" font-size="11" font-family="SFProDisplay-Regular, SF Pro Display" letter-spacing="0.03em"><tspan x="-20.313" y="0">Account</tspan></text><rect width="23" height="23" rx="5" transform="translate(9)" fill="#818181"/><path d="M11.386,8.262C11.914,8.6,13,9.467,13,10.111c0,.369-.238.581-.544.81A56.427,56.427,0,0,1,0,18,64.342,64.342,0,0,0,11.386,8.262ZM9.235,6.008c.533.351,1.273.856,1.273,1.544a1.839,1.839,0,0,1-.448,1.055,34.466,34.466,0,0,1-6.541,6.511A36.966,36.966,0,0,0,9.235,6.008Zm-3-2.253a2.529,2.529,0,0,1,1.44,2.11c0,1.814-1.21,4.335-2.746,6.485A36.363,36.363,0,0,0,6.232,3.756Zm-1.511,3.2A72.454,72.454,0,0,0,0,0C2.293.948,3.9,4.565,4.659,6.659,4.342,5.165,3.945,3.57,3.518,2.254A3.446,3.446,0,0,1,5.077,4.362a18.514,18.514,0,0,1,.247,6.111C5.223,9.618,5.008,8.34,4.721,6.951Z" transform="translate(14 3)" fill="#fff"/></g><g transform="translate(105 17)"><text transform="translate(15 33)" fill="#0668e8" font-size="11" font-family="SFProDisplay-Regular, SF Pro Display" letter-spacing="0.03em"><tspan x="-14.743" y="0">Billin</tspan><tspan y="0" letter-spacing="0.033em">g</tspan></text><path d="M5.3,7.9c-2.27-.59-3-1.2-3-2.15C2.3,4.66,3.31,3.9,5,3.9c1.42,0,2.13.54,2.39,1.4a.925.925,0,0,0,.87.7h.3a.948.948,0,0,0,.9-1.27A4,4,0,0,0,6.5,2.19V1.5a1.5,1.5,0,0,0-3,0v.66C1.56,2.58,0,3.84,0,5.77,0,8.08,1.91,9.23,4.7,9.9c2.5.6,3,1.48,3,2.41C7.7,13,7.21,14.1,5,14.1c-1.65,0-2.5-.59-2.83-1.43a.984.984,0,0,0-.9-.67H.99A.954.954,0,0,0,.1,13.3a4.5,4.5,0,0,0,3.4,2.53v.67a1.5,1.5,0,0,0,3,0v-.65c1.95-.37,3.5-1.5,3.5-3.55C10,9.46,7.57,8.49,5.3,7.9Z" transform="translate(10)" fill="#0668e8"/></g><g transform="translate(244 17)"><text transform="translate(16 33)" fill="#373737" font-size="11" font-family="SFProDisplay-Regular, SF Pro Display" letter-spacing="0.03em"><tspan x="-15.592" y="0">Usage</tspan></text><path d="M14.4,16.2V12.086a1.8,1.8,0,1,1,3.6,0V16.2a1.8,1.8,0,0,1-3.6,0Zm-7.2,0V1.8a1.8,1.8,0,1,1,3.6,0V16.2a1.8,1.8,0,0,1-3.6,0ZM1.8,18A1.805,1.805,0,0,1,0,16.2v-9A1.805,1.805,0,0,1,1.8,5.4h.257a1.805,1.805,0,0,1,1.8,1.8v9a1.805,1.805,0,0,1-1.8,1.8Z" transform="translate(7)" fill="#818181"/></g><g transform="translate(318 17)"><text transform="translate(19.5 33)" fill="#373737" font-size="11" font-family="SFProDisplay-Regular, SF Pro Display" letter-spacing="0.02em"><tspan x="-19.134" y="0">Suppor</tspan><tspan y="0" letter-spacing="0.022em">t</tspan></text><path d="M14.222,0H1.778A1.763,1.763,0,0,0,0,1.749V13.992a1.769,1.769,0,0,0,1.778,1.749H5.333l2.036,2a.9.9,0,0,0,1.253,0l2.044-2h3.556A1.769,1.769,0,0,0,16,13.992V1.749A1.769,1.769,0,0,0,14.222,0Z" transform="translate(12)" fill="#818181"/><path d="M1.778,1.749H0V0H1.778Z" transform="translate(19.111 12.243)" fill="#fff"/><path d="M6.174,5.466l-.8.8a2.88,2.88,0,0,0-1,1.8.763.763,0,0,1-.756.665H3.347a.757.757,0,0,1-.756-.857A3.5,3.5,0,0,1,3.6,5.833l1.1-1.1A1.724,1.724,0,0,0,5.223,3.5,1.769,1.769,0,0,0,3.445,1.749,1.787,1.787,0,0,0,1.765,2.93a.794.794,0,0,1-.738.56H.76A.76.76,0,0,1,.032,2.51,3.55,3.55,0,0,1,3.445,0,3.526,3.526,0,0,1,7,3.5,2.76,2.76,0,0,1,6.174,5.466Z" transform="translate(16.555 1.749)" fill="#fff"/></g><g transform="translate(177 17)"><text transform="translate(13 33)" fill="#373737" font-size="11" font-family="SFProDisplay-Regular, SF Pro Display" letter-spacing="0.03em"><tspan x="-12.663" y="0">Shop</tspan></text><path d="M1.144,2.25H17.159A1.138,1.138,0,0,0,18.3,1.125,1.138,1.138,0,0,0,17.159,0H1.144A1.138,1.138,0,0,0,0,1.125,1.138,1.138,0,0,0,1.144,2.25Z" transform="translate(4.348)" fill="#818181"/><path d="M19.835.9A1.137,1.137,0,0,0,18.714,0H2.286A1.137,1.137,0,0,0,1.165.9L.021,6.525a1.136,1.136,0,0,0,1.121,1.35h.206V13.5a1.138,1.138,0,0,0,1.144,1.125h9.152A1.138,1.138,0,0,0,12.788,13.5V7.875h4.576V13.5a1.144,1.144,0,0,0,2.288,0V7.875h.206a1.136,1.136,0,0,0,1.121-1.35Z" transform="translate(3 3.375)" fill="#818181"/><path d="M6.864,4.5H0V0H6.864Z" transform="translate(6.636 11.25)" fill="#fff"/></g></g><g transform="matrix(1, 0, 0, 1, 0, 0)" filter="url(#j)"><rect width="355" height="264" rx="8" transform="translate(10 130)" fill="#fff"/></g><g transform="translate(24 301)"><rect width="327" height="1" transform="translate(0 9)" fill="#cececf"/><rect width="29" height="14" transform="translate(143 3)" fill="#fff"/><text transform="translate(157.5 13)" font-size="14" font-family="SFProDisplay-Medium, SF Pro Display" font-weight="500"><tspan x="-6.118" y="0">or</tspan></text></g><g transform="translate(11 150)"><text font-size="13" font-family="Helvetica"><tspan x="139.419" y="10">Total Amount</tspan></text><g transform="translate(52 95)"><g fill="#ffce0a" stroke="#ffce0a" stroke-miterlimit="10" stroke-width="2"><rect width="250" height="40" rx="20" stroke="none"/><rect x="1" y="1" width="248" height="38" rx="19" fill="none"/></g><text transform="translate(47 12)" font-size="14" font-family="SFProDisplay-Regular, SF Pro Display"><tspan x="28.983" y="13">Make A Payment</tspan></text></g><text transform="translate(97 16)" font-size="16" font-family="SFProText-Regular, SF Pro Text"><tspan x="7.324" y="38">$</tspan><tspan y="38" font-size="40" font-family="SFProText-Semibold, SF Pro Text" font-weight="600">158.93</tspan></text></g><g transform="translate(270 419)"><g transform="translate(0 1)"><text transform="translate(68 12)" fill="#0668e8" font-size="12" font-family="SFProDisplay-Medium, SF Pro Display" font-weight="500" letter-spacing="0.038em"><tspan x="-70.138" y="0">View History</tspan></text></g><g transform="translate(-3)"><path d="M9,0a9,9,0,1,0,9,9A9,9,0,0,0,9,0Z" transform="translate(77)" fill="#0668e8"/><path d="M8.78,4.28l-3,3A.75.75,0,0,1,4.72,6.22L6.439,4.5H.75A.75.75,0,0,1,.75,3H6.439L4.72,1.28A.75.75,0,0,1,5.78.22l3,3A.749.749,0,0,1,8.78,4.28Z" transform="translate(81.5 5.25)" fill="#fff"/></g></g><g transform="translate(290 107)"><text transform="translate(48 13)" fill="#0668e8" font-size="12" font-family="SFProDisplay-Medium, SF Pro Display" font-weight="500" letter-spacing="0.038em"><tspan x="-46.829" y="0">View Bill</tspan></text><path d="M9,0a9,9,0,1,0,9,9A9,9,0,0,0,9,0Z" transform="translate(54)" fill="#0668e8"/><path d="M8.78,4.28l-3,3A.75.75,0,0,1,4.72,6.22L6.439,4.5H.75A.75.75,0,0,1,.75,3H6.439L4.72,1.28A.75.75,0,0,1,5.78.22l3,3A.749.749,0,0,1,8.78,4.28Z" transform="translate(58.5 5.25)" fill="#fff"/></g><text transform="translate(188 349)" fill="#0668e8" font-size="13" font-family="SFProText-Medium, SF Pro Text" font-weight="500"><tspan x="-54.476" y="0" fill="#000">Can’t pay today? </tspan><tspan y="0" fill="#0668e8"></tspan><tspan x="-96.694" y="20">Set up a payment arrangement</tspan></text><text transform="translate(11 214)" font-size="13" font-family="Helvetica"><tspan x="152.063" y="10">past due</tspan></text><g transform="translate(76 179)"><g transform="translate(5 6)"><path d="M11.5,0A1.819,1.819,0,0,0,9.916.876L.248,17.163A1.909,1.909,0,0,0,1.83,20H21.168a1.91,1.91,0,0,0,1.584-2.837L13.084.876A1.819,1.819,0,0,0,11.5,0Zm0,2.526,9.052,15.248H2.448ZM10.4,6.645V12.21h2.2V6.645Zm0,7.79v2.226h2.2V14.435Z" fill="#e02020"/></g></g></g></svg>