<svg xmlns="http://www.w3.org/2000/svg" xmlns:xlink="http://www.w3.org/1999/xlink" width="375" height="812" viewBox="0 0 375 812"><defs><filter id="a" x="10.958" y="244.357" width="181.503" height="39.765" filterUnits="userSpaceOnUse"><feOffset dy="3" input="SourceAlpha"/><feGaussianBlur stdDeviation="0.5" result="b"/><feFlood flood-opacity="0.039"/><feComposite operator="in" in2="b"/><feComposite in="SourceGraphic"/></filter><filter id="c" x="0" y="741.5" width="375" height="70.5" filterUnits="userSpaceOnUse"><feOffset dy="-0.5" input="SourceAlpha"/><feGaussianBlur result="d"/><feFlood flood-opacity="0.302"/><feComposite operator="in" in2="d"/><feComposite in="SourceGraphic"/></filter><filter id="e" x="8.5" y="327.5" width="358" height="113" filterUnits="userSpaceOnUse"><feOffset dy="1" input="SourceAlpha"/><feGaussianBlur stdDeviation="0.5" result="f"/><feFlood flood-opacity="0.102"/><feComposite operator="in" in2="f"/><feComposite in="SourceGraphic"/></filter><clipPath id="g"><rect width="355" height="40" rx="8.91" fill="rgba(118,118,128,0.12)"/></clipPath><clipPath id="h"><rect width="177.5" height="34.286" fill="none"/></clipPath><filter id="i" x="10.958" y="244.357" width="181.503" height="39.765" filterUnits="userSpaceOnUse"><feOffset dy="3" input="SourceAlpha"/><feGaussianBlur stdDeviation="0.5" result="j"/><feFlood flood-opacity="0.039"/><feComposite operator="in" in2="j"/><feComposite in="SourceGraphic"/></filter><clipPath id="k"><g transform="matrix(1, 0, 0, 1, 0, 0)" filter="url(#a)"><rect width="177.503" height="34.265" rx="6.93" fill="#fff" stroke="rgba(0,0,0,0.04)" stroke-miterlimit="10" stroke-width="0.5"/></g></clipPath><filter id="l" x="8.5" y="105.5" width="358" height="123" filterUnits="userSpaceOnUse"><feOffset dy="1" input="SourceAlpha"/><feGaussianBlur stdDeviation="0.5" result="m"/><feFlood flood-opacity="0.102"/><feComposite operator="in" in2="m"/><feComposite in="SourceGraphic"/></filter><clipPath id="o"><rect width="375" height="812"/></clipPath></defs><g id="n" clip-path="url(#o)"><rect width="375" height="812" fill="#f1f1f1"/><rect width="375" height="91" fill="#fff"/><path d="M2,14A1.89,1.89,0,0,1,0,12.25,1.889,1.889,0,0,1,2,10.5a1.889,1.889,0,0,1,2,1.75A1.89,1.89,0,0,1,2,14ZM2,8.75A1.889,1.889,0,0,1,0,7,1.89,1.89,0,0,1,2,5.25,1.89,1.89,0,0,1,4,7,1.889,1.889,0,0,1,2,8.75ZM2,3.5A1.89,1.89,0,0,1,0,1.75,1.889,1.889,0,0,1,2,0,1.889,1.889,0,0,1,4,1.75,1.89,1.89,0,0,1,2,3.5Z" transform="translate(351 50)"/><path d="M3.621,10.5l7.939-7.939A1.5,1.5,0,1,0,9.439.439l-9,9a1.5,1.5,0,0,0,0,2.121l9,9a1.5,1.5,0,1,0,2.121-2.121Z" transform="translate(16 47)"/><path d="M.2,1H375" transform="translate(0 91)" fill="none" stroke="#d2d3d2" stroke-linecap="square" stroke-miterlimit="10" stroke-width="1"/><g transform="translate(0 742)"><g transform="matrix(1, 0, 0, 1, 0, -742)" filter="url(#c)"><rect width="375" height="70" transform="translate(0 742)" fill="rgba(248,248,248,0.82)"/></g></g><g transform="translate(312 45)"><path d="M8,12H7L4.707,14.293A1,1,0,0,1,3,13.586V12H1a1,1,0,0,1-1-1V1A1,1,0,0,1,1,0H18a1,1,0,0,1,1,1V6.5" transform="translate(0.5 0.482)" fill="none" stroke="#000" stroke-linecap="round" stroke-linejoin="round" stroke-miterlimit="10" stroke-width="1.2"/><path d="M5.5,8l2.836,2.521A1,1,0,0,0,10,9.773V8h1a1,1,0,0,0,1-1V1a1,1,0,0,0-1-1H1A1,1,0,0,0,0,1V7A1,1,0,0,0,1,8Z" transform="translate(11.5 9.482)" fill="none" stroke="#000" stroke-linecap="round" stroke-linejoin="round" stroke-miterlimit="10" stroke-width="1.2"/></g><g transform="translate(10 328)"><g transform="matrix(1, 0, 0, 1, -10, -328)" filter="url(#e)"><rect width="355" height="110" rx="8" transform="translate(10 328)" fill="#fff"/></g><rect width="340" height="0.5" transform="translate(16 54)" fill="#cececf"/><text transform="translate(321 35)" font-size="14" font-family="SFProText-Medium, SF Pro Text" font-weight="500"><tspan x="-55.316" y="0">$158.93</tspan></text><text transform="translate(16 35)" font-size="13" font-family="SFProText-Light, SF Pro Text" font-weight="300"><tspan x="0" y="0">Amount</tspan></text><g transform="translate(16 70)"><text transform="translate(305 12)" font-size="13" font-family="SFProText-Regular, SF Pro Text"><tspan x="-74.636" y="0">Visa- *4488</tspan></text><text transform="translate(0 12)" font-size="13" font-family="SFProText-Light, SF Pro Text" font-weight="300"><tspan x="0" y="0">Payment method</tspan></text><path d="M0,1.269,1.125,0,6,5.5,1.125,11,0,9.731,3.75,5.5Z" transform="translate(318 2)" fill="#0668e8"/></g><path d="M0,1.269,1.125,0,6,5.5,1.125,11,0,9.731,3.75,5.5Z" transform="translate(334 25)" fill="#0668e8"/></g><g transform="translate(10 242)"><rect width="355" height="40" rx="8.91" fill="rgba(118,118,128,0.12)"/><g clip-path="url(#g)"><g transform="translate(178.725 8)"><rect width="1" height="24" rx="0.5" fill="#8e8e93" opacity="0.3"/></g><g transform="translate(177.5 2.857)"><rect width="177.5" height="34.286" fill="none"/></g><g transform="translate(2.958 2.857)"><g transform="matrix(1, 0, 0, 1, -12.96, -244.86)" filter="url(#i)"><g transform="translate(12.96 244.86)" fill="#fff" stroke="rgba(0,0,0,0.04)" stroke-miterlimit="10" stroke-width="0.5"><rect width="177.503" height="34.265" rx="6.93" stroke="none"/><rect x="-0.25" y="-0.25" width="178.003" height="34.765" rx="7.18" fill="none"/></g></g></g></g></g><text transform="translate(101.896 267.418)" font-size="13" font-family="SFProText-Semibold, SF Pro Text" font-weight="600" letter-spacing="-0.006em"><tspan x="-27.137" y="0">Pay Now</tspan></text><g transform="translate(104 757)"><g fill="#ffce0a" stroke="rgba(255,206,10,0.5)" stroke-miterlimit="10" stroke-width="2"><rect width="168" height="40" rx="20" stroke="none"/><rect x="1" y="1" width="166" height="38" rx="19" fill="none"/></g><text transform="translate(83.5 27)" font-size="14" font-family="SFProDisplay-Regular, SF Pro Display" letter-spacing="0.043em"><tspan x="-52.052" y="0">Review Payment</tspan></text></g><text transform="translate(276.5 267)" font-size="13" font-family="SFProText-Regular, SF Pro Text" letter-spacing="-0.006em"><tspan x="-50.039" y="0">Need More Time</tspan></text><text transform="translate(187.5 465)" fill="#007eff" font-size="12" font-family="SFProText-Regular, SF Pro Text" letter-spacing="0.002em"><tspan fill="#000"><tspan x="-109.102" y="0">By continuing, you are agreeing to the </tspan></tspan><tspan letter-spacing="-0.034em"><tspan x="-63.107" y="18">T</tspan><tspan y="18" letter-spacing="0.005em">e</tspan><tspan y="18" letter-spacing="0.004em">r</tspan><tspan y="18" letter-spacing="0.003em">m</tspan><tspan y="18" letter-spacing="-0.01em">s</tspan><tspan y="18" letter-spacing="0.002em"> </tspan><tspan y="18" letter-spacing="-0.01em">and</tspan><tspan y="18" xml:space="preserve" letter-spacing="0.002em"> Con</tspan><tspan y="18" letter-spacing="0em">d</tspan><tspan y="18" letter-spacing="0.001em">i</tspan><tspan y="18" letter-spacing="-0.001em">t</tspan><tspan y="18" letter-spacing="0.002em">i</tspan><tspan y="18" letter-spacing="0.002em">ons.</tspan></tspan></text><text transform="translate(187.416 62)" font-size="17" font-family="SFProText-Semibold, SF Pro Text" font-weight="600" letter-spacing="-0.024em"><tspan x="-66.493" y="0">Make A Payment</tspan></text><g transform="translate(10 106)"><g transform="matrix(1, 0, 0, 1, -10, -106)" filter="url(#l)"><rect width="355" height="120" rx="8" transform="translate(10 106)" fill="#fff"/></g><text transform="translate(178 30)" font-size="13" font-family="Helvetica"><tspan x="-37.581" y="0">Total Amount</tspan></text><text transform="translate(178 74)" font-size="16" font-family="SFProText-Regular, SF Pro Text"><tspan x="-72.676" y="0">$</tspan><tspan y="0" font-size="40" font-family="SFProText-Semibold, SF Pro Text" font-weight="600">158.93</tspan></text><g transform="translate(66 49)"><g transform="translate(5 6)"><path d="M11.5,0A1.819,1.819,0,0,0,9.916.876L.248,17.163A1.909,1.909,0,0,0,1.83,20H21.168a1.91,1.91,0,0,0,1.584-2.837L13.084.876A1.819,1.819,0,0,0,11.5,0Zm0,2.526,9.052,15.248H2.448ZM10.4,6.645V12.21h2.2V6.645Zm0,7.79v2.226h2.2V14.435Z" fill="#e02020"/></g></g></g><text transform="translate(12 317)" font-size="16" font-family="SFProText-Semibold, SF Pro Text" font-weight="600"><tspan x="0" y="0">Payment Details</tspan></text><text transform="translate(188 200)" font-size="13" font-family="Helvetica"><tspan x="-24.937" y="0">past due</tspan></text></g></svg>