<svg xmlns="http://www.w3.org/2000/svg" xmlns:xlink="http://www.w3.org/1999/xlink" width="375" height="812" viewBox="0 0 375 812"><defs><filter id="a" x="10.958" y="244.357" width="181.503" height="39.765" filterUnits="userSpaceOnUse"><feOffset dy="3" input="SourceAlpha"/><feGaussianBlur stdDeviation="0.5" result="b"/><feFlood flood-opacity="0.039"/><feComposite operator="in" in2="b"/><feComposite in="SourceGraphic"/></filter><filter id="c" x="0" y="741.5" width="375" height="70.5" filterUnits="userSpaceOnUse"><feOffset dy="-0.5" input="SourceAlpha"/><feGaussianBlur result="d"/><feFlood flood-opacity="0.302"/><feComposite operator="in" in2="d"/><feComposite in="SourceGraphic"/></filter><filter id="e" x="8.5" y="327.5" width="358" height="114" filterUnits="userSpaceOnUse"><feOffset dy="1" input="SourceAlpha"/><feGaussianBlur stdDeviation="0.5" result="f"/><feFlood flood-opacity="0.102"/><feComposite operator="in" in2="f"/><feComposite in="SourceGraphic"/></filter><clipPath id="g"><rect width="355" height="40" rx="8.91" fill="rgba(118,118,128,0.12)"/></clipPath><clipPath id="h"><rect width="177.5" height="34.286" fill="none"/></clipPath><filter id="i" x="10.958" y="244.357" width="181.503" height="39.765" filterUnits="userSpaceOnUse"><feOffset dy="3" input="SourceAlpha"/><feGaussianBlur stdDeviation="0.5" result="j"/><feFlood flood-opacity="0.039"/><feComposite operator="in" in2="j"/><feComposite in="SourceGraphic"/></filter><clipPath id="k"><g transform="matrix(1, 0, 0, 1, 0, 0)" filter="url(#a)"><rect width="177.503" height="34.265" rx="6.93" fill="#fff" stroke="rgba(0,0,0,0.04)" stroke-miterlimit="10" stroke-width="0.5"/></g></clipPath><filter id="l" x="8.5" y="105.5" width="358" height="123" filterUnits="userSpaceOnUse"><feOffset dy="1" input="SourceAlpha"/><feGaussianBlur stdDeviation="0.5" result="m"/><feFlood flood-opacity="0.102"/><feComposite operator="in" in2="m"/><feComposite in="SourceGraphic"/></filter><clipPath id="n"><rect width="375" height="812" opacity="0.4"/></clipPath><clipPath id="p"><rect width="375" height="812"/></clipPath></defs><g id="o" clip-path="url(#p)"><rect width="375" height="854" transform="translate(0 92)" fill="#f1f1f1"/><rect width="375" height="91" fill="#fff"/><path d="M2,14A1.89,1.89,0,0,1,0,12.25,1.889,1.889,0,0,1,2,10.5a1.889,1.889,0,0,1,2,1.75A1.89,1.89,0,0,1,2,14ZM2,8.75A1.889,1.889,0,0,1,0,7,1.89,1.89,0,0,1,2,5.25,1.89,1.89,0,0,1,4,7,1.889,1.889,0,0,1,2,8.75ZM2,3.5A1.89,1.89,0,0,1,0,1.75,1.889,1.889,0,0,1,2,0,1.889,1.889,0,0,1,4,1.75,1.89,1.89,0,0,1,2,3.5Z" transform="translate(351 50)"/><path d="M3.621,10.5l7.939-7.939A1.5,1.5,0,1,0,9.439.439l-9,9a1.5,1.5,0,0,0,0,2.121l9,9a1.5,1.5,0,1,0,2.121-2.121Z" transform="translate(16 47)"/><path d="M.2,1H375" transform="translate(0 91)" fill="none" stroke="#d2d3d2" stroke-linecap="square" stroke-miterlimit="10" stroke-width="1"/><g transform="translate(0 742)"><g transform="matrix(1, 0, 0, 1, 0, -742)" filter="url(#c)"><rect width="375" height="70" transform="translate(0 742)" fill="rgba(248,248,248,0.82)"/></g></g><g transform="translate(312 45)"><path d="M8,12H7L4.707,14.293A1,1,0,0,1,3,13.586V12H1a1,1,0,0,1-1-1V1A1,1,0,0,1,1,0H18a1,1,0,0,1,1,1V6.5" transform="translate(0.5 0.482)" fill="none" stroke="#000" stroke-linecap="round" stroke-linejoin="round" stroke-miterlimit="10" stroke-width="1.2"/><path d="M5.5,8l2.836,2.521A1,1,0,0,0,10,9.773V8h1a1,1,0,0,0,1-1V1a1,1,0,0,0-1-1H1A1,1,0,0,0,0,1V7A1,1,0,0,0,1,8Z" transform="translate(11.5 9.482)" fill="none" stroke="#000" stroke-linecap="round" stroke-linejoin="round" stroke-miterlimit="10" stroke-width="1.2"/></g><g transform="translate(10 328)"><g transform="matrix(1, 0, 0, 1, -10, -328)" filter="url(#e)"><rect width="355" height="111" rx="8" transform="translate(10 328)" fill="#fff"/></g><rect width="340" height="1" transform="translate(16 54)" fill="none"/><text transform="translate(321 33)" font-size="14" font-family="SFProText-Medium, SF Pro Text" font-weight="500"><tspan x="-55.316" y="0">$158.93</tspan></text><text transform="translate(16 32)" font-size="13" font-family="SFProText-Light, SF Pro Text" font-weight="300"><tspan x="0" y="0">Amount</tspan></text><g transform="translate(16 69)"><text transform="translate(305 17)" font-size="16" font-family="SFProText-Regular, SF Pro Text"><tspan x="-91.859" y="0">Visa- *4488</tspan></text><text transform="translate(0 13)" font-size="14" font-family="SFProText-Regular, SF Pro Text"><tspan x="0" y="0">Payment method</tspan></text><path d="M0,1.269,1.125,0,6,5.5,1.125,11,0,9.731,3.75,5.5Z" transform="translate(318 7)" fill="#0668e8"/></g><path d="M0,1.269,1.125,0,6,5.5,1.125,11,0,9.731,3.75,5.5Z" transform="translate(334 25)" fill="#0668e8"/></g><g transform="translate(10 242)"><rect width="355" height="40" rx="8.91" fill="rgba(118,118,128,0.12)"/><g clip-path="url(#g)"><g transform="translate(178.725 8)"><rect width="1" height="24" rx="0.5" fill="#8e8e93" opacity="0.3"/></g><g transform="translate(177.5 2.857)"><rect width="177.5" height="34.286" fill="none"/></g><g transform="translate(2.958 2.857)"><g transform="matrix(1, 0, 0, 1, -12.96, -244.86)" filter="url(#i)"><g transform="translate(12.96 244.86)" fill="#fff" stroke="rgba(0,0,0,0.04)" stroke-miterlimit="10" stroke-width="0.5"><rect width="177.503" height="34.265" rx="6.93" stroke="none"/><rect x="-0.25" y="-0.25" width="178.003" height="34.765" rx="7.18" fill="none"/></g></g></g></g></g><text transform="translate(276.5 267)" font-size="13" font-family="SFProText-Regular, SF Pro Text" letter-spacing="-0.006em"><tspan x="-50.039" y="0">Need More Time</tspan></text><text transform="translate(101.896 267.418)" font-size="13" font-family="SFProText-Semibold, SF Pro Text" font-weight="600" letter-spacing="-0.006em"><tspan x="-27.137" y="0">Pay Now</tspan></text><g transform="translate(130 757)"><g fill="#ffce0a" stroke="rgba(255,206,10,0.5)" stroke-miterlimit="10" stroke-width="2"><rect width="116" height="40" rx="20" stroke="none"/><rect x="1" y="1" width="114" height="38" rx="19" fill="none"/></g><g transform="translate(79 14)"><g transform="translate(4 1)"><path d="M4.248,11.206a.7.7,0,0,1-.318-.182L.2,7.3a.7.7,0,1,1,.986-.985L3.954,9.075V.7A.7.7,0,1,1,5.348.7V9.075L8.114,6.31A.7.7,0,0,1,9.1,7.3L5.371,11.024a.7.7,0,0,1-.318.182.7.7,0,0,1-.8,0Z" transform="translate(0.998 9.317) rotate(-90)"/></g></g><text transform="translate(46.5 27)" font-size="14" font-family="SFProDisplay-Regular, SF Pro Display" letter-spacing="0.043em"><tspan x="-22.558" y="0">Review</tspan></text></g><text transform="translate(187.416 62)" font-size="17" font-family="SFProText-Semibold, SF Pro Text" font-weight="600" letter-spacing="-0.024em"><tspan x="-66.493" y="0">Make A Payment</tspan></text><g transform="translate(10 106)"><g transform="matrix(1, 0, 0, 1, -10, -106)" filter="url(#l)"><rect width="355" height="120" rx="8" transform="translate(10 106)" fill="#fff"/></g><text transform="translate(178 30)" font-size="13" font-family="Helvetica"><tspan x="-37.581" y="0">Total Amount</tspan></text><text transform="translate(178 74)" font-size="16" font-family="SFProText-Regular, SF Pro Text"><tspan x="-72.676" y="0">$</tspan><tspan y="0" font-size="40" font-family="SFProText-Semibold, SF Pro Text" font-weight="600">158.93</tspan></text><g transform="translate(66 49)"><g transform="translate(5 6)"><path d="M11.5,0A1.819,1.819,0,0,0,9.916.876L.248,17.163A1.909,1.909,0,0,0,1.83,20H21.168a1.91,1.91,0,0,0,1.584-2.837L13.084.876A1.819,1.819,0,0,0,11.5,0Zm0,2.526,9.052,15.248H2.448ZM10.4,6.645V12.21h2.2V6.645Zm0,7.79v2.226h2.2V14.435Z" fill="#e02020"/></g></g></g><text transform="translate(12 317)" font-size="16" font-family="SFProText-Semibold, SF Pro Text" font-weight="600"><tspan x="0" y="0">Payment Details</tspan></text><text transform="translate(188 200)" font-size="13" font-family="Helvetica"><tspan x="-24.937" y="0">past due</tspan></text><rect width="375" height="812" opacity="0.4"/><g transform="translate(0 419)"><path d="M12,0H363a12,12,0,0,1,12,12V393a0,0,0,0,1,0,0H0a0,0,0,0,1,0,0V12A12,12,0,0,1,12,0Z" fill="#f0f0f0"/><g transform="translate(27 237)"><text transform="translate(54 13)" font-size="14" font-family="SFProDisplay-Semibold, SF Pro Display" font-weight="600" letter-spacing="0.008em"><tspan x="0" y="0">Late fees still apply</tspan></text><text transform="translate(54 33)" font-size="12" font-family="SFProDisplay-Light, SF Pro Display" font-weight="300" letter-spacing="0.008em"><tspan x="0" y="0">Balances paid after the due date will be subject to </tspan><tspan x="0" y="14">late fees.</tspan></text><g transform="translate(2.389 2.389)"><circle cx="12.111" cy="12.111" r="12.111" fill="none" stroke="#818181" stroke-linecap="round" stroke-linejoin="round" stroke-miterlimit="10" stroke-width="1.7"/><path d="M6.927.006H2.07A1.917,1.917,0,0,0,.006,2.07c0,2.262,6.92,3.992,6.92,6.254a2.027,2.027,0,0,1-2.063,2.063H.006" transform="translate(8.644 6.914)" fill="none" stroke="#818181" stroke-linecap="round" stroke-linejoin="round" stroke-miterlimit="10" stroke-width="1.7"/><path d="M.636,2.6V0" transform="translate(11.474 4.325)" fill="none" stroke="#818181" stroke-linecap="round" stroke-linejoin="round" stroke-miterlimit="10" stroke-width="1.7"/><path d="M.636,2.6V0" transform="translate(11.474 17.301)" fill="none" stroke="#818181" stroke-linecap="round" stroke-linejoin="round" stroke-miterlimit="10" stroke-width="1.7"/></g></g><g transform="translate(23 169)"><text transform="translate(58 15)" font-size="14" font-family="SFProDisplay-Semibold, SF Pro Display" font-weight="600" letter-spacing="0.008em"><tspan x="0" y="0">Continued service</tspan></text><text transform="translate(58 35)" font-size="12" font-family="SFProDisplay-Light, SF Pro Display" font-weight="300" letter-spacing="0.008em"><tspan x="0" y="0">Uninterrupted service when your payment </tspan><tspan x="0" y="14">arrangement processes successfully.</tspan></text><g transform="translate(4 2)"><g transform="translate(4.81 -1.297) rotate(19)"><g transform="translate(0 0)"><path d="M24.369,6.677a.735.735,0,0,0-.968.379A10.293,10.293,0,0,1,3.675,2.94V2.509l.95.95A.735.735,0,0,0,5.665,2.42L3.46.215a.735.735,0,0,0-1.039,0L.215,2.42A.735.735,0,0,0,1.255,3.46l.95-.95V2.94a11.763,11.763,0,0,0,22.543,4.7A.736.736,0,0,0,24.369,6.677Z" transform="translate(0 8.821)" fill="#818181" stroke="#818181" stroke-miterlimit="10" stroke-width="0.18"/><path d="M24.594,11.241a.735.735,0,0,0-1.039,0l-.95.95v-.431A11.763,11.763,0,0,0,.062,7.056a.735.735,0,0,0,1.347.588,10.293,10.293,0,0,1,19.725,4.116v.431l-.95-.95a.735.735,0,1,0-1.039,1.039l2.2,2.2a.735.735,0,0,0,1.04,0l2.2-2.2A.735.735,0,0,0,24.594,11.241Z" transform="translate(3.123 0)" fill="#818181" stroke="#818181" stroke-miterlimit="10" stroke-width="0.18"/></g></g></g></g><g transform="translate(27 303)"><text transform="translate(54 13)" font-size="14" font-family="SFProDisplay-Semibold, SF Pro Display" font-weight="600" letter-spacing="0.008em"><tspan x="0" y="0">AutoPay paused</tspan></text><text transform="translate(54 34)" font-size="12" font-family="SFProDisplay-Light, SF Pro Display" font-weight="300" letter-spacing="0.008em"><tspan x="0" y="0">Do you use AutoPay? It will be on hold and </tspan><tspan x="0" y="14">resume after your payment arrangement closes.</tspan></text><g transform="translate(1.812 2.629)"><path d="M.6,0V8.185" transform="translate(9.22 8.185)" fill="none" stroke="#818181" stroke-linecap="round" stroke-linejoin="round" stroke-miterlimit="10" stroke-width="1.763"/><path d="M.6,0V8.185" transform="translate(14.737 8.185)" fill="none" stroke="#818181" stroke-linecap="round" stroke-linejoin="round" stroke-miterlimit="10" stroke-width="1.763"/><circle cx="12.278" cy="12.278" r="12.278" fill="none" stroke="#818181" stroke-linecap="round" stroke-linejoin="round" stroke-miterlimit="10" stroke-width="1.763"/></g></g><rect width="375" height="0.5" transform="translate(0 146)" fill="#cececf"/><text transform="translate(318 29)" fill="#0668e8" font-size="16" font-family="SFProDisplay-Medium, SF Pro Display" font-weight="500"><tspan x="0" y="0">Done</tspan></text><rect width="375" height="0.5" transform="translate(0 42)" fill="#cececf"/><text transform="translate(191 80)" fill="#818181" font-size="13" font-family="SFProDisplay-Bold, SF Pro Display" font-weight="700" letter-spacing="0.064em"><tspan x="-96.786" y="0">Get More Time To Pay With A </tspan><tspan x="-74.081" y="14">Payment Arrangement</tspan></text><text transform="translate(50.5 119)" font-size="12" font-family="SFProDisplay-Light, SF Pro Display" font-weight="300" letter-spacing="0.008em"><tspan x="0" y="0">You’re eligible for a few extra days to pay your balance.</tspan></text></g></g></svg>